{"glyphs":{":":{"x_min":0,"x_max":127,"ha":127,"o":"m 28 30 q 28 47 40 58 q 51 69 68 69 q 98 69 98 39 q 98 22 87 11 q 76 0 59 0 q 28 0 28 30 z m 55 240 q 55 257 66 268 q 78 279 95 279 q 125 279 125 249 q 125 232 114 221 q 103 210 86 210 q 55 210 55 240 z"},"$":{"x_min":0,"x_max":402,"ha":402,"o":"m 161 -4 q 98 4 64 54 q 30 105 30 184 q 30 199 32 215 q 33 231 37 244 q 41 258 48 267 q 55 276 66 276 q 76 276 83 268 q 90 260 90 239 q 90 232 90 224 q 89 216 88 207 q 86 196 85 184 q 84 171 84 158 q 84 101 106 69 q 127 37 158 28 q 158 61 167 119 q 176 177 188 241 q 173 250 160 261 q 146 272 136 286 q 125 299 118 316 q 112 333 112 356 q 112 387 123 410 q 134 433 152 449 q 170 465 192 474 q 214 483 236 486 q 237 490 237 492 q 237 495 237 497 q 237 503 234 504 q 232 506 232 507 q 232 511 245 514 q 258 517 274 517 q 286 517 296 514 q 306 510 306 499 q 306 494 303 480 q 321 473 334 460 q 346 448 354 434 q 361 419 364 404 q 367 388 367 374 q 367 364 366 350 q 364 336 360 324 q 355 311 348 302 q 341 293 330 293 q 320 293 314 301 q 307 309 307 329 q 307 346 310 365 q 311 375 312 384 q 313 394 313 402 q 313 434 296 447 q 288 415 276 370 q 264 324 252 272 l 259 268 q 276 258 293 246 q 310 235 324 220 q 337 206 345 188 q 353 169 353 143 q 353 112 341 86 q 329 61 308 42 q 287 22 260 10 q 233 -2 203 -5 l 203 -24 q 203 -30 198 -34 q 194 -38 189 -38 q 181 -38 174 -30 q 166 -22 161 -4 z m 288 134 q 288 162 274 180 q 259 198 238 212 q 227 164 218 117 q 210 70 206 28 q 241 36 264 66 q 288 97 288 134 z m 178 366 q 178 348 184 334 q 190 320 201 309 l 229 450 q 205 439 192 416 q 178 392 178 366 z"},"?":{"x_min":0,"x_max":321,"ha":321,"o":"m 57 30 q 57 47 68 58 q 79 69 96 69 q 127 69 127 39 q 127 22 116 11 q 105 0 88 0 q 57 0 57 30 z m 176 455 q 158 455 144 446 q 129 438 118 424 q 108 410 102 392 q 97 374 97 354 q 97 330 89 320 q 81 311 70 311 q 56 311 44 324 q 33 337 33 363 q 33 385 42 406 q 52 428 70 446 q 88 463 114 474 q 140 485 174 485 q 202 485 227 477 q 252 469 270 453 q 289 437 300 413 q 311 389 311 357 q 311 320 296 290 q 282 261 260 238 q 238 214 213 196 q 188 177 166 162 q 144 146 130 132 q 115 118 115 104 q 115 93 110 88 q 105 83 99 83 q 92 83 87 88 q 82 93 82 104 q 82 134 106 159 q 131 184 161 212 q 191 240 216 276 q 240 312 240 364 q 240 405 224 430 q 207 455 176 455 z"},"<":{"x_min":0,"x_max":220,"ha":220,"o":"m 152 253 q 155 253 160 247 q 164 241 168 232 q 172 224 174 214 q 177 205 177 198 q 177 193 173 189 q 170 188 156 186 q 143 183 125 180 q 107 177 87 174 q 67 170 50 165 q 67 156 86 149 q 104 142 120 137 q 136 132 148 128 q 159 124 162 122 q 166 119 166 110 q 166 104 164 96 q 161 87 158 80 q 154 72 150 67 q 145 62 142 62 q 141 63 140 63 q 140 64 140 64 q 140 66 138 68 q 136 69 126 75 q 120 79 102 90 q 83 102 64 116 q 44 130 28 144 q 13 159 13 169 q 13 180 30 192 q 47 204 68 215 q 90 226 110 234 q 130 242 137 245 q 146 248 148 250 q 151 251 152 253 z"},"'":{"x_min":0,"x_max":130,"ha":130,"o":"m 121 361 q 121 356 118 350 q 114 343 110 332 q 105 322 100 306 q 95 291 92 267 q 90 255 89 242 q 88 228 88 212 q 88 207 84 202 q 80 198 74 198 q 63 198 56 203 q 49 208 46 216 q 42 225 41 234 q 40 244 40 253 q 40 274 43 293 q 45 307 46 320 q 48 332 50 342 q 51 346 51 350 q 51 353 51 356 q 51 362 48 363 q 47 364 47 366 q 47 370 60 373 q 73 376 92 376 q 93 376 95 376 q 99 376 100 375 q 108 374 114 371 q 121 368 121 361 z"},"=":{"x_min":0,"x_max":276,"ha":276,"o":"m 60 191 q 60 198 62 206 q 65 213 73 213 q 78 213 85 210 q 92 208 103 205 q 114 202 130 200 q 146 197 169 197 q 192 197 223 200 l 225 200 q 237 200 239 188 l 239 183 q 239 170 231 162 q 223 155 210 151 q 197 147 181 146 q 165 144 149 144 q 135 144 122 144 q 109 145 99 145 q 89 145 85 144 q 80 144 78 141 q 78 139 76 139 q 72 138 68 150 q 63 162 61 176 q 60 181 60 184 q 60 188 60 191 z m 60 110 q 60 117 62 124 q 65 132 73 132 q 78 132 85 130 q 92 127 103 124 q 114 121 130 118 q 146 116 169 116 q 192 116 223 119 l 225 119 q 237 119 239 107 l 239 102 q 239 89 231 82 q 223 74 210 70 q 197 66 181 64 q 165 63 149 63 q 135 63 122 64 q 109 64 99 64 q 89 64 85 63 q 80 63 78 60 q 78 58 76 58 q 72 57 68 69 q 63 81 61 95 q 60 100 60 104 q 60 107 60 110 z"},"a":{"x_min":0,"x_max":314,"ha":314,"o":"m 199 206 q 207 244 207 260 q 207 266 204 267 q 202 269 202 270 q 202 274 215 277 q 228 280 244 280 q 256 280 266 277 q 277 274 277 266 q 277 261 274 246 q 270 231 265 210 q 260 190 254 166 q 248 141 243 118 q 238 95 234 76 q 231 56 231 44 q 231 29 236 30 q 244 30 256 48 q 268 67 280 90 q 292 114 302 136 q 311 158 314 166 q 319 175 328 175 q 334 175 338 171 q 343 167 343 160 q 343 157 338 145 q 333 133 327 120 q 321 107 316 95 q 310 83 308 80 q 294 53 283 38 q 272 22 263 14 q 254 5 246 2 q 239 0 233 0 q 208 0 197 24 q 186 48 186 86 q 165 39 139 16 q 113 -6 78 -6 q 33 -6 12 26 q -8 58 -8 104 q -8 134 0 166 q 9 198 26 225 q 42 252 66 269 q 91 286 124 286 q 145 286 159 279 q 173 272 182 260 q 190 249 194 234 q 198 220 199 206 z m 187 161 q 186 160 182 160 q 178 160 174 164 q 171 168 171 173 l 171 175 q 173 182 174 190 q 174 197 174 202 q 174 210 172 220 q 170 229 166 237 q 161 245 154 250 q 146 256 136 256 q 118 256 104 239 q 91 222 82 196 q 72 171 67 142 q 62 112 62 87 q 62 57 70 40 q 77 24 94 24 q 110 24 124 37 q 138 50 150 70 q 161 91 170 115 q 180 139 187 161 z"},"L":{"x_min":0,"x_max":932,"ha":932,"o":"m 0 243 q 0 285 26 335 q 51 385 96 436 q 142 487 206 534 q 269 582 345 619 q 421 656 507 678 q 593 700 684 700 q 725 700 754 684 q 782 668 800 644 q 818 620 826 591 q 835 562 835 536 q 835 524 833 506 q 831 488 826 471 q 821 454 812 442 q 802 430 788 430 q 777 430 770 440 q 762 450 762 476 q 762 499 766 528 q 771 556 771 579 q 771 621 750 646 q 729 670 694 670 q 666 670 644 654 q 622 639 604 612 q 585 584 570 548 q 555 512 542 471 q 528 430 514 386 q 500 343 485 301 q 480 288 472 266 q 464 243 453 216 q 442 189 429 160 q 416 130 401 101 q 429 91 458 78 q 488 66 520 55 q 553 44 587 37 q 621 30 658 30 q 693 30 724 36 q 756 43 780 54 q 803 64 817 78 q 831 91 831 105 q 831 110 829 111 q 827 113 827 114 q 827 118 840 121 q 852 124 869 124 q 880 124 890 120 q 901 117 901 104 q 901 77 882 58 q 862 38 831 25 q 800 12 762 6 q 723 0 684 0 q 638 0 596 8 q 555 16 518 27 q 481 38 448 51 q 415 64 386 74 q 360 29 330 -1 q 300 -31 267 -31 q 238 -31 218 -8 q 197 15 197 46 q 197 65 206 80 q 214 95 228 105 q 242 115 260 120 q 279 125 299 125 q 324 125 348 118 q 362 162 375 210 q 388 259 404 310 q 418 355 434 405 q 450 455 470 503 q 490 551 516 593 q 542 635 576 662 q 510 650 446 626 q 381 601 324 567 q 267 533 218 492 q 170 450 135 405 q 100 360 80 314 q 61 267 61 222 q 61 196 55 180 q 49 164 39 164 q 34 164 27 170 q 20 175 14 186 q 8 196 4 210 q 0 225 0 243 z m 337 86 q 337 87 338 88 q 338 88 338 89 q 316 95 295 95 q 259 95 243 79 q 227 63 227 45 q 227 29 238 14 q 248 -1 266 -1 q 281 -1 294 10 q 306 22 315 37 q 324 52 330 66 q 335 80 337 86 z"},"3":{"x_min":0,"x_max":392,"ha":392,"o":"m 366 437 q 366 429 358 424 l 352 415 q 346 407 332 387 q 318 367 304 346 q 273 299 250 276 q 308 265 335 232 q 362 199 362 159 q 362 131 350 102 q 337 74 313 51 q 289 28 254 14 q 219 0 174 0 q 137 0 108 10 q 80 20 60 38 q 41 55 31 77 q 21 99 21 123 q 21 140 30 157 q 38 174 57 174 q 69 174 77 164 q 85 154 85 128 q 85 109 91 92 q 97 74 109 60 q 121 47 138 38 q 155 30 176 30 q 199 30 219 43 q 239 56 254 76 q 268 96 276 120 q 285 145 285 168 q 285 200 268 223 q 251 246 212 249 q 209 247 203 247 q 189 247 189 260 q 189 264 191 268 q 231 330 250 366 q 270 401 279 421 q 240 418 214 413 q 187 408 168 404 q 150 399 138 395 q 126 391 117 391 q 100 391 96 402 q 91 412 91 424 q 91 440 94 452 q 97 465 101 465 q 102 465 104 463 q 106 461 106 461 q 107 461 108 461 q 131 461 170 464 q 210 468 254 468 q 289 468 311 465 q 333 462 345 458 q 357 453 362 448 q 366 442 366 437 z"},";":{"x_min":0,"x_max":126,"ha":126,"o":"m 29 -78 q 29 -77 28 -77 q 28 -77 28 -76 q 28 -74 30 -70 q 40 -50 44 -32 q 48 -13 49 1 q 28 6 28 30 q 28 47 40 58 q 51 69 68 69 q 98 69 98 39 q 98 28 94 8 q 89 -13 81 -34 q 73 -54 62 -69 q 52 -84 40 -84 q 31 -84 29 -78 z m 54 240 q 54 257 65 268 q 76 279 93 279 q 124 279 124 249 q 124 232 113 221 q 102 210 85 210 q 54 210 54 240 z"},"J":{"x_min":0,"x_max":648,"ha":648,"o":"m 342 0 q 312 0 286 10 q 261 21 242 39 q 224 57 214 80 q 203 103 203 127 q 203 173 239 216 q 275 259 339 282 q 372 294 406 298 q 439 302 471 304 q 473 309 474 313 q 474 317 475 322 q 481 351 489 397 q 497 443 510 494 q 523 544 542 590 q 562 637 590 666 q 522 657 456 634 q 390 611 331 577 q 272 543 222 501 q 173 459 137 412 q 101 366 81 318 q 61 269 61 223 q 61 197 55 180 q 49 164 39 164 q 28 164 14 186 q 0 208 0 244 q 0 286 24 336 q 48 385 92 436 q 135 486 196 534 q 257 581 330 618 q 404 654 488 676 q 573 699 663 700 l 669 700 q 675 698 678 694 q 681 690 681 685 q 681 680 678 675 q 674 670 666 670 q 650 670 636 646 q 621 623 610 586 q 598 549 588 502 q 578 455 570 408 q 561 361 554 318 q 547 276 541 247 q 534 216 520 174 q 507 131 484 92 q 461 54 426 27 q 391 0 342 0 z m 327 30 q 360 30 384 54 q 407 79 423 116 q 439 152 449 194 q 459 237 466 273 q 436 272 406 268 q 375 264 346 253 q 289 232 261 196 q 233 159 233 127 q 233 110 240 93 q 248 76 260 62 q 273 48 290 39 q 308 30 327 30 z"},"V":{"x_min":0,"x_max":892,"ha":892,"o":"m 549 24 q 579 24 612 56 q 645 88 676 138 q 708 189 736 252 q 764 315 786 378 q 807 440 820 496 q 832 551 832 587 q 832 609 826 622 q 821 634 810 634 q 802 634 798 639 q 794 644 794 649 q 794 655 798 660 q 802 664 810 664 q 855 664 874 628 q 894 591 894 533 q 894 484 881 425 q 868 366 844 306 q 821 246 788 190 q 755 134 715 90 q 675 47 629 20 q 583 -6 534 -6 q 500 -6 478 6 q 456 19 444 40 q 431 60 426 86 q 421 113 421 140 q 421 175 426 208 q 431 242 436 268 q 439 287 444 314 q 449 340 453 370 q 457 400 460 432 q 463 464 463 495 q 463 530 458 562 q 453 594 441 618 q 429 642 408 656 q 388 670 356 670 q 305 670 252 634 q 200 597 158 536 q 115 476 88 397 q 61 318 61 232 q 61 164 39 164 q 28 164 14 187 q 0 210 0 254 q 0 347 33 428 q 66 510 118 570 q 171 631 238 666 q 304 701 371 701 q 424 701 458 680 q 491 659 510 626 q 528 592 535 551 q 542 510 542 469 q 542 433 538 401 q 535 369 531 347 q 528 326 522 298 q 517 271 512 240 q 507 209 504 178 q 500 146 500 119 q 500 78 510 51 q 520 24 549 24 z"},"\"":{"x_min":0,"x_max":239,"ha":239,"o":"m 130 361 q 130 356 126 350 q 123 343 118 332 q 114 322 109 306 q 104 291 101 267 q 100 255 98 242 q 97 228 97 212 q 97 207 93 202 q 89 198 83 198 q 72 198 65 203 q 58 208 54 216 q 51 225 50 234 q 49 244 49 253 q 49 274 52 293 q 54 307 56 320 q 57 332 59 342 q 60 346 60 350 q 60 353 60 356 q 60 362 58 363 q 56 365 56 366 q 56 370 69 373 q 82 376 102 376 q 103 376 105 376 q 108 376 110 375 q 118 374 124 371 q 130 368 130 361 z m 210 361 q 210 356 206 350 q 203 343 198 332 q 194 322 189 306 q 184 291 181 267 q 180 255 178 242 q 177 228 177 212 q 177 207 173 202 q 169 198 163 198 q 152 198 145 203 q 138 208 134 216 q 131 225 130 234 q 129 244 129 253 q 129 274 132 293 q 134 307 136 320 q 137 332 139 342 q 140 346 140 350 q 140 353 140 356 q 140 362 138 363 q 136 365 136 366 q 136 370 149 373 q 162 376 182 376 q 183 376 185 376 q 188 376 190 375 q 198 374 204 371 q 210 368 210 361 z"},"7":{"x_min":0,"x_max":324,"ha":324,"o":"m 314 434 q 312 426 302 402 q 291 379 275 346 q 259 312 240 271 q 222 230 204 186 q 186 142 170 98 q 155 53 146 14 q 143 3 132 3 q 119 3 115 18 q 111 34 111 44 q 111 52 112 63 q 113 74 117 89 q 123 116 139 161 q 155 206 173 254 q 191 303 209 348 q 227 393 237 421 q 193 419 161 414 q 129 409 106 404 q 84 399 69 395 q 54 391 44 391 q 27 391 22 402 q 18 412 18 424 q 18 440 21 452 q 24 465 28 465 q 29 465 31 463 q 33 461 33 461 q 34 461 35 461 q 46 461 66 462 q 85 463 108 464 q 130 466 154 467 q 179 468 201 468 q 217 468 230 468 q 242 467 253 466 q 259 466 270 466 q 280 465 290 462 q 300 459 308 454 q 315 449 315 440 q 315 437 314 434 z"},"S":{"x_min":0,"x_max":916,"ha":916,"o":"m -1 253 q -1 303 24 355 q 48 407 94 457 q 141 507 206 551 q 272 595 354 628 q 437 661 534 680 q 631 700 739 700 q 783 700 812 684 q 840 668 858 644 q 875 620 882 592 q 889 563 889 538 q 889 525 887 506 q 885 488 880 471 q 875 454 866 442 q 856 430 842 430 q 831 430 824 440 q 816 450 816 476 q 816 499 820 528 q 825 557 825 582 q 825 621 807 646 q 789 670 745 670 q 714 670 690 658 q 665 646 648 626 q 631 606 622 580 q 613 555 613 529 q 613 489 632 462 q 651 435 680 414 q 708 394 741 376 q 774 357 802 334 q 831 312 850 281 q 869 250 869 204 q 869 158 849 119 q 829 80 796 52 q 763 25 720 10 q 677 -6 631 -6 q 579 -6 538 14 q 498 33 470 68 q 442 103 427 152 q 412 202 412 263 q 412 283 414 306 q 416 328 422 347 q 427 366 436 378 q 445 391 459 391 q 470 391 478 381 q 485 371 485 345 q 485 322 480 291 q 476 260 476 225 q 476 174 488 136 q 501 99 522 74 q 543 49 570 36 q 598 24 628 24 q 661 24 690 38 q 719 51 741 74 q 763 98 776 128 q 789 158 789 191 q 789 232 770 258 q 751 285 722 305 q 694 325 660 342 q 627 359 598 382 q 570 404 551 436 q 532 467 532 515 q 532 568 554 604 q 577 640 611 662 q 494 647 394 607 q 293 567 218 509 q 144 451 102 379 q 60 307 60 229 q 60 198 54 181 q 48 164 38 164 q 27 164 13 187 q -1 210 -1 253 z"},"Z":{"x_min":0,"x_max":863,"ha":863,"o":"m 129 46 q 129 65 138 80 q 146 95 160 105 q 174 115 192 120 q 211 125 231 125 q 255 125 281 118 q 307 112 334 101 q 364 142 394 194 q 425 245 457 300 q 489 356 522 412 q 556 467 592 516 q 627 565 666 604 q 704 642 746 663 q 720 666 690 668 q 660 670 623 670 q 506 670 419 651 q 332 632 270 600 q 207 567 166 524 q 126 482 102 434 q 79 387 70 338 q 60 288 60 243 q 60 201 54 182 q 48 164 39 164 q 28 164 14 189 q 0 214 0 268 q 0 304 10 350 q 20 396 46 444 q 71 492 116 538 q 161 584 232 620 q 303 656 402 678 q 502 700 636 700 q 700 700 746 696 q 792 691 830 685 q 838 685 844 682 q 849 679 849 670 q 849 665 846 660 q 842 655 834 655 q 804 655 772 626 q 740 596 706 548 q 673 500 638 438 q 602 376 564 312 q 525 248 484 186 q 442 124 397 76 q 441 59 488 44 q 536 30 590 30 q 625 30 656 36 q 688 43 712 54 q 735 64 749 78 q 763 91 763 105 q 763 110 761 111 q 759 113 759 114 q 759 118 772 121 q 784 124 801 124 q 812 124 822 120 q 833 117 833 104 q 833 77 814 58 q 794 38 763 25 q 732 12 694 6 q 655 0 616 0 q 544 0 484 17 q 425 34 374 53 q 333 15 290 -8 q 247 -31 199 -31 q 170 -31 150 -8 q 129 15 129 46 z m 227 95 q 191 95 175 79 q 159 63 159 45 q 159 29 170 14 q 180 -1 198 -1 q 228 -1 257 20 q 286 41 315 76 q 291 84 269 90 q 247 95 227 95 z"},"x":{"x_min":0,"x_max":289,"ha":289,"o":"m 127 176 q 126 191 124 205 q 123 219 120 230 q 118 242 114 249 q 109 256 101 256 q 90 256 80 242 q 71 227 64 206 q 58 185 54 162 q 50 139 50 122 q 59 122 59 114 q 59 110 54 106 q 50 102 40 102 q 21 102 10 118 q -1 135 -1 161 q -1 184 8 206 q 16 229 30 246 q 44 264 63 275 q 82 286 103 286 q 131 286 151 268 q 171 249 183 220 l 231 278 q 235 285 244 285 q 250 285 254 280 q 259 276 259 270 q 259 266 256 261 l 194 186 q 199 171 200 156 q 203 135 204 112 q 206 90 207 72 q 208 53 208 41 q 209 29 211 29 q 218 29 230 48 q 242 66 254 90 q 266 114 276 136 q 286 159 289 167 q 294 176 303 176 q 309 176 314 172 q 318 167 318 161 q 318 158 313 146 q 308 134 302 121 q 296 108 290 96 q 285 84 283 81 q 269 54 258 38 q 247 22 238 14 q 229 5 222 2 q 215 0 209 0 q 194 0 182 9 q 171 18 162 34 q 153 49 146 70 q 140 91 136 114 l 50 8 q 46 1 37 1 q 31 1 26 6 q 22 10 22 16 q 22 21 25 25 l 130 154 z"},")":{"x_min":0,"x_max":361,"ha":361,"o":"m 17 -70 q 57 -70 91 -50 q 125 -29 152 6 q 179 40 200 84 q 220 128 234 176 q 248 223 255 270 q 262 316 262 355 q 262 398 253 437 q 244 476 224 506 q 205 535 174 552 q 144 570 101 570 q 92 570 88 575 q 84 580 84 585 q 84 591 88 596 q 92 600 101 600 q 161 600 204 578 q 248 555 276 518 q 305 481 318 432 q 332 384 332 332 q 332 263 310 187 q 287 111 246 47 q 205 -17 146 -58 q 88 -100 17 -100 q 9 -100 5 -96 q 1 -91 1 -85 q 1 -80 5 -75 q 9 -70 17 -70 z"},"&":{"x_min":0,"x_max":424,"ha":424,"o":"m 220 161 q 219 166 218 169 q 218 172 218 175 q 218 182 220 190 q 223 197 232 197 q 237 197 244 194 q 251 192 262 189 q 272 186 288 184 q 304 181 327 181 q 351 181 382 184 q 394 186 397 172 q 397 158 393 150 q 389 143 375 137 q 375 131 373 123 q 367 99 352 77 q 336 55 312 38 q 289 20 258 10 q 227 0 190 0 q 145 0 114 14 q 82 28 64 51 q 45 74 40 102 q 34 131 41 159 q 51 199 86 232 q 121 265 181 276 q 173 287 164 304 q 154 322 144 346 q 135 367 126 387 q 118 407 113 415 q 110 423 109 424 q 102 429 105 437 q 106 442 112 448 q 117 453 130 458 q 144 462 166 465 q 189 468 224 468 q 268 468 306 464 q 345 461 368 461 q 369 461 370 461 q 371 462 372 462 q 372 462 373 463 q 375 465 376 465 q 380 465 380 452 q 380 440 376 424 q 373 412 366 402 q 359 391 342 391 q 333 391 322 395 q 311 399 294 404 q 277 408 252 413 q 226 418 188 421 q 192 401 203 366 q 214 331 238 268 q 240 265 238 260 q 235 247 221 247 q 215 247 213 249 q 173 246 150 223 q 128 200 120 168 q 114 145 116 120 q 119 96 129 76 q 139 56 156 43 q 172 30 195 30 q 216 30 235 38 q 254 47 269 60 q 284 74 295 92 q 306 109 310 128 l 307 128 q 293 128 280 128 q 268 129 258 129 l 244 129 q 238 128 237 125 q 235 123 235 123 q 231 122 226 134 q 222 147 220 161 z"},"_":{"x_min":0,"x_max":342,"ha":342,"o":"m 17 -136 q 17 -128 20 -121 q 22 -114 31 -114 q 43 -114 74 -122 q 104 -130 150 -130 q 202 -130 271 -127 l 275 -127 q 295 -127 304 -139 q 304 -140 305 -141 q 306 -142 306 -144 q 306 -157 288 -164 q 270 -172 242 -176 q 213 -180 177 -182 q 141 -183 106 -183 q 92 -183 80 -182 q 67 -182 57 -182 l 43 -182 q 37 -183 36 -186 q 34 -188 34 -188 q 30 -189 26 -176 q 21 -164 19 -150 q 18 -145 18 -142 q 17 -139 17 -136 z"},"v":{"x_min":0,"x_max":243,"ha":243,"o":"m 59 -1 q 40 -1 27 9 q 14 19 7 35 q 0 51 -3 70 q -6 88 -6 104 q -6 124 -3 148 q 0 171 4 193 q 8 215 11 233 q 14 251 14 260 q 14 266 12 267 q 10 269 10 270 q 10 274 22 277 q 35 280 51 280 q 63 280 74 276 q 84 273 84 261 q 84 251 77 226 q 70 200 62 170 q 54 139 47 108 q 40 77 40 56 q 40 29 55 29 q 69 29 87 48 q 105 66 120 96 q 136 126 147 164 q 158 201 158 239 q 158 254 155 263 q 145 264 145 271 q 145 277 150 279 q 155 281 160 281 q 182 281 194 258 q 207 234 207 205 q 207 177 196 144 q 185 111 167 81 q 193 90 211 111 q 225 126 232 142 q 239 158 244 166 q 247 173 255 173 q 262 173 267 169 q 272 165 272 159 q 272 155 271 153 q 255 111 223 80 q 191 48 143 48 q 124 26 103 12 q 82 -1 59 -1 z"},"O":{"x_min":0,"x_max":893,"ha":893,"o":"m 60 233 q 60 199 54 182 q 47 166 38 166 q 27 166 14 188 q 0 210 0 253 q 0 293 18 342 q 35 391 68 440 q 101 490 149 537 q 197 584 258 620 q 318 656 391 678 q 464 700 547 700 q 634 700 696 676 q 757 651 795 610 q 833 570 850 516 q 868 463 868 405 q 868 333 844 260 q 820 187 777 128 q 734 69 676 32 q 618 -6 549 -6 q 489 -6 448 14 q 408 33 382 66 q 357 98 346 141 q 335 184 335 230 q 335 296 356 366 q 378 436 417 493 q 456 550 510 586 q 563 623 626 623 q 639 623 645 618 q 651 614 651 608 q 651 602 644 596 q 638 591 627 591 q 583 591 544 556 q 506 521 477 466 q 448 412 432 346 q 415 280 415 219 q 415 180 422 144 q 430 109 446 82 q 463 56 488 40 q 513 24 549 24 q 599 24 642 58 q 686 91 718 144 q 750 198 768 264 q 787 330 787 395 q 787 449 773 498 q 759 548 728 586 q 698 625 650 648 q 601 670 532 670 q 470 670 410 651 q 351 632 299 600 q 247 568 203 525 q 159 482 127 434 q 95 385 78 334 q 60 282 60 233 z"},"(":{"x_min":0,"x_max":364,"ha":364,"o":"m 348 570 q 308 570 274 550 q 240 529 213 494 q 186 460 166 416 q 145 372 131 324 q 117 277 110 230 q 103 184 103 145 q 103 102 112 63 q 121 24 140 -6 q 160 -35 190 -52 q 221 -70 264 -70 q 273 -70 277 -75 q 281 -80 281 -85 q 281 -91 277 -96 q 273 -100 264 -100 q 204 -100 160 -78 q 117 -55 88 -18 q 60 19 46 68 q 33 116 33 168 q 33 237 56 313 q 78 389 120 453 q 161 517 219 558 q 277 600 348 600 q 356 600 360 596 q 364 591 364 585 q 364 580 360 575 q 356 570 348 570 z"},"C":{"x_min":0,"x_max":932,"ha":932,"o":"m 532 246 q 532 203 540 162 q 549 122 568 92 q 587 61 617 42 q 647 24 690 24 q 727 24 754 37 q 782 50 801 69 q 820 88 832 110 q 845 133 852 153 q 859 173 862 186 q 864 199 864 200 q 865 207 870 210 q 874 213 879 213 q 885 213 890 210 q 894 206 894 199 l 894 196 q 887 153 869 116 q 851 79 824 52 q 796 25 758 10 q 721 -6 675 -6 q 616 -6 574 17 q 531 40 504 78 q 477 117 464 166 q 452 215 452 266 q 452 320 465 378 q 478 436 502 490 q 527 544 562 590 q 597 635 642 663 q 522 649 416 609 q 310 569 232 510 q 153 452 107 380 q 61 307 61 227 q 61 198 55 181 q 49 164 39 164 q 28 164 14 186 q 0 209 0 251 q 0 301 26 354 q 53 406 102 456 q 150 506 218 550 q 287 595 372 628 q 457 661 556 680 q 654 700 762 700 q 807 700 836 684 q 866 668 884 644 q 901 620 908 592 q 915 563 915 538 q 915 525 913 506 q 911 488 906 471 q 901 454 892 442 q 882 430 868 430 q 857 430 850 440 q 842 450 842 476 q 842 499 846 528 q 851 557 851 582 q 851 621 833 646 q 815 670 770 670 q 730 670 696 650 q 663 629 636 594 q 610 560 590 516 q 571 472 558 425 q 545 378 538 332 q 532 285 532 246 z"},"W":{"x_min":0,"x_max":1149,"ha":1149,"o":"m 719 186 q 743 219 766 254 q 788 288 805 320 q 822 352 832 379 q 843 406 843 425 q 843 455 814 455 q 790 455 772 435 q 754 415 742 383 q 729 351 723 311 q 717 271 717 230 q 717 219 718 208 q 718 197 719 186 z m 800 33 q 829 33 862 65 q 894 97 926 148 q 958 198 987 260 q 1016 323 1038 385 q 1061 447 1074 502 q 1087 557 1087 591 q 1087 634 1066 634 q 1058 634 1054 639 q 1050 644 1050 649 q 1050 655 1054 660 q 1058 664 1066 664 q 1111 664 1131 627 q 1151 590 1151 532 q 1151 484 1138 426 q 1126 367 1104 308 q 1081 249 1050 194 q 1018 138 980 96 q 943 53 900 27 q 857 1 812 1 q 766 1 734 26 q 702 52 683 94 q 645 52 606 26 q 566 1 520 1 q 490 1 471 12 q 452 24 440 42 q 429 61 425 86 q 421 110 421 136 q 421 173 426 209 q 431 245 436 271 q 439 291 444 317 q 449 343 453 372 q 457 402 460 434 q 463 465 463 496 q 463 531 458 562 q 453 594 441 618 q 429 642 408 656 q 388 670 356 670 q 305 670 252 634 q 200 597 158 536 q 115 476 88 397 q 61 318 61 232 q 61 164 39 164 q 28 164 14 187 q 0 210 0 254 q 0 347 33 428 q 66 510 118 570 q 171 631 237 666 q 303 701 370 701 q 423 701 456 680 q 490 659 509 625 q 528 591 535 550 q 542 509 542 468 q 542 433 539 402 q 536 370 532 349 q 528 327 522 298 q 517 269 512 238 q 506 206 502 174 q 498 142 498 115 q 498 79 508 56 q 517 32 541 32 q 567 32 601 58 q 635 84 671 125 q 654 179 654 238 q 654 284 664 328 q 674 373 694 408 q 715 442 745 464 q 775 485 814 485 q 845 485 858 470 q 872 455 872 429 q 872 398 856 358 q 841 319 818 280 q 796 240 770 204 q 745 168 725 144 q 733 96 752 64 q 771 33 800 33 z"},"A":{"x_min":0,"x_max":936,"ha":936,"o":"m 835 446 q 835 495 816 536 q 798 577 762 607 q 727 637 676 654 q 624 670 559 670 q 489 670 424 651 q 360 632 304 600 q 249 567 204 524 q 159 480 127 431 q 95 382 78 330 q 60 279 60 230 q 60 200 54 183 q 48 166 38 166 q 27 166 13 188 q -1 211 -1 252 q -1 292 17 341 q 35 390 69 440 q 103 489 152 536 q 202 583 264 620 q 327 656 402 678 q 477 700 563 700 q 652 700 717 676 q 782 653 824 614 q 866 574 886 523 q 907 472 907 418 q 907 369 901 320 q 895 271 886 222 q 878 174 869 126 q 860 77 855 28 q 864 24 864 15 q 864 9 860 4 q 856 0 848 0 q 833 0 824 8 q 815 17 810 30 q 806 42 804 56 q 803 70 803 81 q 803 128 810 174 q 816 221 822 267 q 798 269 770 270 q 741 271 712 272 q 682 272 652 273 q 623 274 597 274 q 588 234 574 186 q 561 138 538 97 q 514 56 479 28 q 444 0 393 0 q 363 0 338 10 q 312 21 294 39 q 275 57 264 80 q 254 103 254 127 q 254 173 290 216 q 326 259 390 282 q 423 294 456 298 q 490 302 522 304 q 526 329 532 363 q 537 397 546 434 q 555 470 568 505 q 581 540 600 568 q 619 596 644 614 q 670 631 704 631 q 712 631 716 626 q 720 621 720 616 q 720 611 716 606 q 713 601 705 601 q 684 601 668 572 q 652 543 640 498 q 628 454 619 402 q 610 350 602 304 l 609 304 q 635 304 666 303 q 698 302 728 301 q 759 300 784 299 q 810 298 825 297 q 830 334 832 371 q 835 408 835 446 z m 378 30 q 411 30 434 54 q 457 79 473 116 q 489 152 500 194 q 510 237 517 273 q 487 272 456 268 q 426 264 397 253 q 340 232 312 196 q 284 159 284 127 q 284 110 292 93 q 299 76 312 62 q 324 48 342 39 q 359 30 378 30 z"},"f":{"x_min":0,"x_max":126,"ha":126,"o":"m 35 466 q 35 471 32 472 q 30 474 30 475 q 30 479 43 482 q 56 485 72 485 q 106 485 106 462 q 106 453 102 425 q 99 397 94 358 q 88 318 80 272 q 73 227 66 183 q 59 139 52 102 q 45 64 40 42 q 72 77 94 110 q 116 143 127 166 q 132 175 141 175 q 147 175 152 171 q 156 167 156 159 q 156 155 155 153 q 148 136 135 116 q 122 95 105 74 q 88 52 68 31 q 49 10 29 -8 q 21 -44 9 -87 q -3 -130 -19 -167 q -35 -204 -55 -229 q -75 -254 -99 -254 q -119 -254 -132 -238 q -145 -222 -145 -198 q -145 -176 -134 -152 q -122 -128 -105 -104 q -88 -81 -68 -60 q -47 -38 -29 -22 q -26 -5 -20 32 q -14 69 -8 116 q -1 164 6 216 q 12 269 18 318 q 24 366 28 406 q 33 445 35 466 z m -115 -199 q -115 -210 -110 -217 q -105 -224 -100 -224 q -93 -224 -85 -210 q -77 -196 -70 -174 q -62 -152 -54 -125 q -47 -98 -41 -73 q -54 -88 -68 -105 q -81 -122 -92 -139 q -102 -156 -108 -172 q -115 -187 -115 -199 z"},"Q":{"x_min":0,"x_max":894,"ha":894,"o":"m 253 58 q 289 58 330 43 q 370 28 414 10 q 459 -7 508 -22 q 557 -37 612 -37 q 647 -37 678 -30 q 710 -24 734 -14 q 757 -3 771 10 q 785 24 785 38 q 785 43 783 44 q 781 46 781 47 q 781 51 794 54 q 806 57 823 57 q 834 57 844 54 q 855 50 855 37 q 855 10 836 -10 q 816 -29 785 -42 q 754 -55 716 -61 q 677 -67 638 -67 q 572 -67 516 -52 q 459 -37 412 -20 q 364 -2 324 13 q 284 28 249 28 q 242 28 239 32 q 236 37 236 42 q 236 48 240 53 q 244 58 253 58 z m 60 233 q 60 199 54 182 q 47 166 38 166 q 27 166 14 188 q 0 210 0 253 q 0 293 18 342 q 35 391 68 440 q 101 490 149 537 q 197 584 258 620 q 318 656 391 678 q 464 700 547 700 q 634 700 696 676 q 757 651 795 610 q 833 570 850 516 q 868 463 868 405 q 868 333 844 260 q 820 187 777 128 q 734 69 676 32 q 618 -6 549 -6 q 489 -6 448 14 q 408 33 382 66 q 357 98 346 141 q 335 184 335 230 q 335 296 356 366 q 378 436 417 493 q 456 550 510 586 q 563 623 626 623 q 639 623 645 618 q 651 614 651 608 q 651 602 644 596 q 638 591 627 591 q 583 591 544 556 q 506 521 477 466 q 448 412 432 346 q 415 280 415 219 q 415 180 422 144 q 430 109 446 82 q 463 56 488 40 q 513 24 549 24 q 599 24 642 58 q 686 91 718 144 q 750 198 768 264 q 787 330 787 395 q 787 449 773 498 q 759 548 728 586 q 698 625 650 648 q 601 670 532 670 q 470 670 410 651 q 351 632 299 600 q 247 568 203 525 q 159 482 127 434 q 95 385 78 334 q 60 282 60 233 z"},"w":{"x_min":0,"x_max":375,"ha":375,"o":"m 187 -1 q 153 -1 130 25 q 114 13 97 6 q 80 -1 62 -1 q 40 -1 27 9 q 14 19 7 34 q 0 49 -2 66 q -5 84 -5 100 q -5 122 -2 146 q 0 170 4 192 q 7 214 10 232 q 12 250 12 259 q 12 266 10 267 q 8 269 8 270 q 8 274 20 277 q 33 280 50 280 q 61 280 73 276 q 85 273 85 261 q 85 251 78 226 q 70 200 61 170 q 52 139 44 109 q 37 79 37 60 q 37 44 43 37 q 49 30 65 30 q 91 30 115 49 q 99 80 99 120 q 99 145 106 168 q 112 192 123 210 q 134 229 150 240 q 165 251 183 251 q 204 251 213 236 q 222 222 222 200 q 222 168 206 128 q 190 89 163 57 q 165 45 170 37 q 175 29 184 29 q 200 29 219 53 q 238 77 254 110 q 271 144 282 181 q 293 218 293 243 q 293 254 290 263 q 280 264 280 271 q 280 277 285 279 q 290 281 294 281 q 317 281 330 258 q 342 235 342 207 q 342 179 332 146 q 321 112 301 82 q 315 87 325 94 q 335 102 343 111 q 357 126 364 142 q 371 158 375 166 q 379 173 387 173 q 399 173 401 167 q 403 161 403 153 q 394 132 382 113 q 371 94 356 80 q 341 65 322 56 q 302 48 276 48 q 256 26 234 12 q 211 -1 187 -1 z m 192 210 q 192 221 189 221 q 186 221 182 212 q 178 202 174 186 q 170 170 167 150 q 164 129 162 108 q 176 135 184 162 q 192 190 192 210 z"},"-":{"x_min":0,"x_max":267,"ha":267,"o":"m 54 154 q 54 161 56 168 q 59 176 68 176 q 73 176 80 174 q 87 171 98 168 q 108 165 124 162 q 140 160 163 160 q 187 160 218 163 q 231 165 233 151 q 234 150 234 146 q 234 133 226 126 q 218 118 205 114 q 192 110 176 108 q 159 107 143 107 q 129 107 116 108 q 104 108 94 108 l 80 108 q 74 107 73 104 q 71 102 71 102 q 67 101 62 114 q 58 126 56 140 q 55 145 54 148 q 54 151 54 154 z"},"E":{"x_min":0,"x_max":932,"ha":932,"o":"m 690 24 q 727 24 754 37 q 782 50 801 69 q 820 88 832 110 q 845 133 852 153 q 859 173 862 186 q 864 199 864 200 q 865 207 870 210 q 874 213 879 213 q 885 213 890 210 q 894 206 894 199 l 894 196 q 887 153 869 116 q 851 79 824 52 q 796 25 758 10 q 721 -6 675 -6 q 616 -6 574 17 q 531 40 504 78 q 477 117 464 166 q 452 215 452 266 q 452 320 465 378 q 478 436 502 490 q 527 544 562 590 q 597 635 642 663 q 522 649 416 609 q 310 569 232 510 q 153 452 107 380 q 61 307 61 227 q 61 198 55 181 q 49 164 39 164 q 28 164 14 186 q 0 209 0 251 q 0 301 26 354 q 53 406 102 456 q 150 506 218 550 q 287 595 372 628 q 457 661 556 680 q 654 700 762 700 q 807 700 836 684 q 866 668 884 644 q 901 620 908 592 q 915 563 915 538 q 915 525 913 506 q 911 488 906 471 q 901 454 892 442 q 882 430 868 430 q 857 430 850 440 q 842 450 842 476 q 842 499 846 528 q 851 557 851 582 q 851 621 833 646 q 815 670 770 670 q 718 670 677 636 q 636 601 607 548 q 578 495 560 432 q 542 368 536 310 q 545 310 556 310 q 568 309 579 308 q 590 308 600 308 q 609 308 614 308 q 660 308 689 316 q 718 324 729 324 q 738 324 740 317 q 743 310 743 302 q 743 299 742 296 q 742 293 742 290 q 740 274 735 262 q 730 249 726 250 q 726 250 724 252 q 723 255 717 256 l 703 256 q 693 256 670 256 q 648 255 634 255 q 613 255 583 258 q 553 260 533 269 q 532 263 532 257 q 532 251 532 246 q 532 203 540 162 q 549 122 568 92 q 587 61 617 42 q 647 24 690 24 z"},"s":{"x_min":0,"x_max":266,"ha":266,"o":"m -6 112 q -6 123 -4 138 q -3 152 0 165 q 3 177 15 177 q 20 177 25 174 q 30 170 30 162 l 30 159 q 27 148 26 135 q 24 122 24 111 q 24 96 28 80 q 31 65 38 52 q 46 40 58 32 q 71 24 89 24 q 113 24 130 38 q 146 52 146 74 q 146 97 128 108 q 111 120 90 130 q 69 141 52 156 q 34 171 34 200 q 34 222 44 238 q 55 254 70 264 q 86 275 105 280 q 124 285 140 285 q 173 285 192 266 q 211 247 212 219 q 212 199 204 189 q 196 179 186 179 q 177 179 170 188 q 162 198 162 217 q 162 229 156 242 q 151 255 133 255 q 117 255 108 243 q 98 231 98 215 q 98 193 116 181 q 134 169 156 158 q 177 147 196 132 q 215 117 216 89 q 237 114 250 136 q 263 158 266 166 q 270 173 278 173 q 290 173 292 167 q 294 161 294 153 q 290 144 274 117 q 259 90 233 62 q 207 35 172 14 q 138 -6 92 -6 q 73 -6 56 -1 q 38 4 24 17 q 11 30 2 53 q -6 76 -6 112 z"},">":{"x_min":0,"x_max":217,"ha":217,"o":"m 67 61 q 64 61 60 67 q 55 73 51 82 q 47 90 44 100 q 42 109 42 116 q 42 123 46 125 q 49 127 62 129 q 76 131 94 134 q 112 137 132 140 q 152 144 169 149 q 152 158 134 165 q 115 172 99 178 q 83 183 72 186 q 60 190 57 193 q 53 196 53 204 q 53 210 56 218 q 58 227 62 234 q 65 242 70 247 q 74 252 77 252 q 79 252 79 251 q 79 251 79 250 q 79 248 81 246 q 83 245 93 239 q 99 235 118 224 q 136 212 156 198 q 175 184 190 170 q 206 155 206 145 q 206 135 189 122 q 172 110 150 100 q 129 89 109 81 q 89 73 82 70 q 73 66 70 64 q 68 63 67 61 z"},"l":{"x_min":0,"x_max":122,"ha":122,"o":"m 41 0 q 15 0 4 24 q -6 48 -6 83 q -6 105 -2 140 q 1 175 6 216 q 11 256 17 298 q 23 339 28 374 q 33 408 36 433 q 40 458 40 464 q 40 471 37 472 q 35 474 35 475 q 35 479 48 482 q 61 485 76 485 q 88 485 98 482 q 109 480 109 472 q 109 467 104 439 q 99 411 91 370 q 83 329 74 281 q 65 233 57 188 q 49 142 44 104 q 39 67 39 47 l 39 44 q 39 28 44 30 q 51 30 63 48 q 75 67 87 90 q 99 114 109 136 q 119 158 122 166 q 125 175 136 175 q 142 175 146 171 q 151 167 151 160 q 151 157 146 145 q 141 133 135 120 q 129 107 124 95 q 118 83 116 80 q 102 53 91 38 q 80 22 71 14 q 62 5 54 2 q 47 0 41 0 z"},"8":{"x_min":0,"x_max":388,"ha":388,"o":"m 20 131 q 20 173 46 212 q 73 250 127 268 q 104 282 92 304 q 80 326 80 350 q 80 372 90 393 q 99 414 118 431 q 138 448 166 458 q 195 469 234 469 q 296 469 325 442 q 354 414 354 378 q 354 347 335 316 q 316 286 281 268 q 323 252 342 222 q 361 193 361 159 q 361 131 348 102 q 336 74 312 51 q 288 28 253 14 q 218 0 173 0 q 135 0 106 11 q 77 22 58 40 q 39 59 30 82 q 20 106 20 131 z m 202 249 q 175 249 154 238 q 133 227 119 210 q 105 192 98 170 q 91 148 91 126 q 91 107 96 90 q 101 73 112 60 q 122 46 138 38 q 154 30 175 30 q 198 30 218 43 q 238 56 252 76 q 267 96 276 120 q 284 145 284 168 q 284 201 266 225 q 247 249 202 249 z m 205 280 q 222 280 236 290 q 250 300 261 315 q 272 330 278 348 q 284 366 284 383 q 284 406 272 422 q 260 438 232 438 q 212 438 197 430 q 182 421 172 408 q 161 395 156 378 q 151 362 151 345 q 151 319 164 300 q 177 281 205 280 z"},"\\":{"x_min":0,"x_max":223,"ha":223,"o":"m 174 14 q 165 54 150 98 q 134 142 116 186 q 98 230 80 271 q 61 312 45 346 q 29 379 18 402 q 8 426 6 434 q 5 437 5 440 q 5 448 12 453 q 18 458 26 461 q 35 464 44 465 q 54 466 60 466 q 74 466 76 462 q 75 460 75 460 q 73 458 73 455 l 73 451 q 75 445 84 422 q 92 398 105 365 q 118 332 133 293 q 148 254 162 216 q 176 178 187 144 q 198 111 203 89 q 207 74 208 63 q 209 52 209 44 q 209 39 208 32 q 208 25 206 18 q 203 12 199 8 q 195 3 188 3 q 177 3 174 14 z"},"e":{"x_min":0,"x_max":243,"ha":243,"o":"m -8 114 q -8 144 2 174 q 12 205 30 230 q 48 254 74 270 q 99 286 131 286 q 163 286 180 270 q 198 253 198 224 q 198 201 188 180 q 178 159 162 144 q 145 128 124 118 q 102 109 79 109 q 66 109 63 118 q 62 111 62 105 q 62 99 62 93 q 62 55 74 39 q 86 23 107 23 q 130 23 151 38 q 172 54 190 76 q 208 99 222 124 q 236 148 243 166 q 246 175 257 175 q 263 175 268 171 q 272 167 272 160 q 272 158 271 157 q 260 129 244 100 q 228 71 207 47 q 186 23 160 8 q 134 -7 102 -7 q 56 -7 24 25 q -8 57 -8 114 z m 133 256 q 121 256 110 244 q 99 233 90 215 q 80 197 74 174 q 67 151 64 127 q 66 132 70 133 q 74 134 77 134 q 94 136 107 147 q 120 158 129 173 q 138 188 143 205 q 148 222 148 235 q 148 256 133 256 z"},"b":{"x_min":0,"x_max":294,"ha":294,"o":"m -7 79 q -7 102 -4 138 q 0 174 5 214 q 10 255 16 297 q 21 339 26 374 q 31 409 34 434 q 38 459 38 466 q 38 471 35 472 q 33 474 33 475 q 33 479 46 482 q 58 485 75 485 q 86 485 96 482 q 107 478 107 465 q 107 456 102 431 q 97 406 90 370 q 82 334 74 290 q 65 246 57 199 q 77 244 102 265 q 127 286 162 286 q 207 286 228 254 q 248 223 248 177 q 248 154 244 130 q 239 107 230 85 q 245 92 256 104 q 267 115 274 127 q 282 139 287 150 q 292 160 295 166 q 298 173 306 173 q 313 173 318 169 q 323 165 323 159 q 323 155 322 153 q 319 145 311 129 q 303 113 290 96 q 276 79 256 66 q 237 52 210 48 q 193 25 170 10 q 147 -6 116 -6 q 95 -6 81 2 q 67 9 58 20 q 49 32 45 46 q 41 61 41 75 q 38 44 38 16 q 38 2 24 2 q 14 2 4 18 q -7 35 -7 79 z m 53 119 q 54 120 58 120 q 62 120 66 116 q 69 113 69 108 l 69 105 q 68 98 68 90 q 67 83 67 78 q 67 70 69 60 q 71 51 76 43 q 80 35 87 30 q 94 24 104 24 q 122 24 136 41 q 149 58 158 84 q 168 109 173 138 q 178 168 178 193 q 178 223 170 240 q 163 256 146 256 q 130 256 116 243 q 102 230 90 210 q 79 190 70 166 q 60 142 53 119 z"},"%":{"x_min":0,"x_max":340,"ha":340,"o":"m 99 10 q 96 0 85 0 q 74 0 70 14 q 66 27 66 36 q 66 48 69 58 q 72 69 74 77 q 82 101 96 136 q 111 171 129 210 q 147 250 166 290 q 186 330 202 364 q 218 397 229 420 q 240 444 242 450 q 244 456 244 455 l 242 460 l 242 461 l 242 463 l 243 464 q 244 464 244 464 q 245 465 246 465 q 248 466 254 466 q 262 466 271 464 q 280 462 288 459 q 297 456 303 451 q 309 446 310 440 l 310 437 q 310 434 309 432 q 307 423 294 399 q 280 375 260 342 q 241 308 218 266 q 195 224 172 180 q 150 137 130 93 q 111 49 99 10 z m 232 0 q 198 0 182 14 q 167 28 167 46 q 167 68 188 88 q 208 107 245 107 q 279 107 294 93 q 310 79 310 61 q 310 39 290 20 q 269 0 232 0 z m 97 358 q 63 358 48 372 q 32 386 32 404 q 32 426 52 446 q 73 465 110 465 q 144 465 159 451 q 174 437 174 419 q 174 397 154 378 q 133 358 97 358 z m 80 409 q 80 393 86 386 q 92 379 100 379 q 110 379 118 388 q 127 397 127 414 q 127 430 121 437 q 115 444 107 444 q 97 444 88 435 q 80 426 80 409 z m 215 51 q 215 35 221 28 q 227 21 235 21 q 245 21 254 30 q 262 39 262 56 q 262 72 256 79 q 250 86 242 86 q 232 86 224 77 q 215 68 215 51 z"},"m":{"x_min":0,"x_max":412,"ha":412,"o":"m 297 225 q 297 256 286 256 q 279 256 266 248 q 254 239 239 225 q 246 203 246 175 q 246 151 240 128 q 235 104 224 85 q 212 66 196 54 q 179 43 157 43 q 136 43 127 52 q 118 62 118 78 q 118 101 134 132 q 149 164 176 199 q 176 223 172 240 q 168 256 158 256 q 149 256 137 240 q 125 225 112 200 q 99 176 86 147 q 74 118 64 92 q 54 65 47 44 q 40 22 39 14 q 36 0 25 0 q 15 0 4 18 q -6 36 -6 83 q -6 107 -3 134 q 0 162 4 187 q 7 212 10 232 q 13 251 13 260 q 13 266 10 267 q 10 268 10 268 q 9 269 9 270 q 9 274 22 277 q 34 280 50 280 q 62 280 72 278 q 83 275 83 267 q 83 259 74 228 q 66 198 56 156 q 62 169 68 183 q 75 197 83 212 q 98 240 118 263 q 139 286 171 286 q 190 286 204 278 q 217 269 226 255 q 241 269 259 278 q 277 286 299 286 q 318 286 330 280 q 343 273 350 262 q 358 251 361 238 q 364 225 364 211 q 364 191 359 164 q 354 138 348 112 q 342 86 337 64 q 332 43 332 34 q 332 30 335 30 q 340 30 353 48 q 366 67 378 90 q 389 113 398 134 q 408 156 413 166 q 416 175 427 175 q 433 175 438 171 q 442 167 442 160 q 442 157 437 145 q 432 133 426 120 q 420 107 414 95 q 408 83 406 80 q 392 53 381 38 q 370 22 361 14 q 352 5 344 2 q 336 0 329 0 q 303 0 292 20 q 280 40 280 65 q 280 79 282 100 q 285 120 288 142 q 292 165 294 187 q 297 209 297 225 z m 150 72 q 156 72 162 92 q 168 112 172 139 q 161 120 154 103 q 148 86 148 75 q 148 74 148 74 q 150 72 150 72 z"},"#":{"x_min":0,"x_max":393,"ha":393,"o":"m 127 144 q 116 110 106 77 q 96 44 89 14 q 86 3 75 3 q 62 3 58 18 q 54 34 54 44 q 54 52 55 64 q 56 75 61 94 l 74 144 q 64 144 60 143 q 55 143 53 140 q 53 138 51 138 q 47 137 42 149 q 38 161 36 175 q 35 180 35 184 q 35 187 35 190 q 35 197 37 204 q 39 212 48 212 q 53 212 65 210 q 77 209 93 207 l 108 255 l 75 255 q 64 255 60 254 q 55 254 53 251 q 53 249 51 249 q 47 248 42 260 q 38 272 36 286 q 35 291 35 294 q 35 298 35 301 q 35 308 37 316 q 39 323 48 323 q 56 323 78 320 q 100 317 127 314 l 170 451 l 170 455 q 170 458 168 460 q 167 461 167 462 q 169 466 183 466 q 189 466 198 465 q 208 464 216 461 q 225 458 232 453 q 238 448 238 440 q 238 437 237 434 q 235 423 222 390 q 208 356 188 308 q 195 307 202 307 q 208 307 214 307 l 255 307 q 272 360 285 401 q 298 442 300 451 l 300 455 q 300 458 298 460 q 297 461 297 462 q 299 466 313 466 q 319 466 328 465 q 338 464 346 461 q 355 458 362 453 q 368 448 368 440 q 368 437 367 434 q 365 423 352 390 q 338 357 319 309 q 329 309 336 309 q 344 309 348 310 l 350 310 q 362 310 364 298 l 364 293 q 364 281 345 274 q 326 266 300 262 l 276 197 q 299 197 320 198 q 340 198 348 199 l 350 199 q 362 199 364 187 l 364 182 q 364 173 354 167 q 345 161 330 157 q 315 153 296 150 q 277 148 258 146 q 246 111 236 78 q 226 45 219 14 q 216 3 205 3 q 192 3 188 18 q 184 34 184 44 q 184 69 190 94 q 196 120 204 143 q 184 143 166 143 q 147 143 127 144 z m 147 200 q 165 198 184 197 q 202 196 220 196 l 238 255 q 224 254 213 254 q 202 254 194 254 l 167 254 z"},",":{"x_min":0,"x_max":122,"ha":122,"o":"m 28 -78 q 28 -77 28 -77 q 27 -77 27 -76 q 27 -74 29 -70 q 39 -50 43 -32 q 47 -13 48 1 q 27 6 27 30 q 27 47 38 58 q 50 69 67 69 q 97 69 97 39 q 97 28 92 8 q 88 -13 80 -34 q 73 -54 62 -69 q 51 -84 39 -84 q 30 -84 28 -78 z"},"n":{"x_min":0,"x_max":296,"ha":296,"o":"m 219 30 q 224 30 237 48 q 250 67 262 90 q 273 113 282 134 q 292 156 297 166 q 300 175 311 175 q 317 175 322 171 q 326 167 326 160 q 326 157 321 145 q 316 133 310 120 q 304 107 298 95 q 292 83 290 80 q 276 53 265 38 q 254 22 245 14 q 236 5 228 2 q 220 0 213 0 q 187 0 176 20 q 164 40 164 65 q 164 79 166 100 q 169 120 172 142 q 176 165 178 187 q 181 209 181 225 q 181 256 168 256 q 157 256 144 240 q 131 223 120 205 q 103 178 89 150 q 75 121 64 96 q 54 70 48 48 q 41 27 39 14 q 36 0 25 0 q 15 0 4 18 q -6 36 -6 83 q -6 107 -3 134 q 0 162 4 187 q 7 212 10 232 q 13 251 13 260 q 13 266 11 267 q 9 269 9 270 q 9 274 22 277 q 34 280 50 280 q 62 280 72 278 q 83 275 83 267 q 83 259 73 224 q 63 190 54 143 q 63 163 75 188 q 87 213 104 235 q 120 257 140 272 q 161 287 187 287 q 205 287 217 280 q 229 273 236 262 q 242 252 245 238 q 248 225 248 212 q 248 192 243 165 q 238 138 232 112 q 226 86 221 64 q 216 43 216 34 q 216 30 219 30 z"},"h":{"x_min":0,"x_max":294,"ha":294,"o":"m 295 166 q 298 175 309 175 q 315 175 320 171 q 324 167 324 160 q 324 157 319 145 q 314 133 308 120 q 302 107 296 95 q 291 83 289 80 q 275 53 264 38 q 252 22 243 14 q 234 5 226 2 q 218 0 211 0 q 185 0 174 20 q 162 40 162 65 q 162 79 164 100 q 167 120 170 142 q 174 165 176 187 q 179 209 179 225 q 179 256 166 256 q 155 256 142 240 q 129 223 118 205 q 102 178 88 150 q 75 123 64 98 q 54 72 47 50 q 40 29 37 16 q 37 2 23 2 q 13 2 2 18 q -8 35 -8 79 q -8 102 -4 138 q -1 174 4 214 q 8 255 14 297 q 20 339 24 374 q 29 409 32 434 q 36 459 36 466 q 36 471 34 472 q 32 474 32 475 q 32 479 44 482 q 57 485 74 485 q 85 485 96 482 q 106 478 106 465 q 106 455 99 422 q 92 388 82 342 q 73 295 62 240 q 52 184 45 129 q 55 150 68 178 q 82 206 96 227 q 102 236 110 246 q 119 257 130 266 q 141 275 154 281 q 168 287 185 287 q 203 287 215 280 q 227 273 234 262 q 240 252 243 238 q 246 225 246 212 q 246 192 241 165 q 236 138 230 112 q 224 86 219 64 q 214 43 214 34 q 214 30 217 30 q 222 30 235 48 q 248 67 260 90 q 271 113 280 134 q 290 156 295 166 z"},"z":{"x_min":0,"x_max":293,"ha":293,"o":"m 182 6 q 189 -9 193 -27 q 197 -45 197 -67 q 197 -111 181 -146 q 165 -180 140 -204 q 116 -228 88 -241 q 60 -254 36 -254 q 10 -254 -8 -239 q -26 -224 -26 -194 q -26 -166 -12 -138 q 1 -110 22 -84 q 44 -59 70 -36 q 96 -14 121 3 q 116 16 108 23 q 99 30 83 30 q 76 30 72 34 q 68 39 68 45 q 68 51 72 56 q 76 60 83 60 q 105 60 122 72 q 138 85 150 104 q 161 124 167 146 q 173 169 173 190 q 173 200 172 212 q 170 223 166 233 q 162 243 154 250 q 147 256 136 256 q 119 256 104 241 q 88 226 76 205 q 64 184 56 161 q 49 138 49 121 q 59 121 59 112 q 59 102 45 102 q 22 102 10 117 q -1 132 -1 154 q -1 180 10 204 q 22 227 41 246 q 60 264 85 275 q 110 286 138 286 q 182 286 212 257 q 242 228 242 181 q 242 136 215 100 q 188 63 148 44 q 153 42 156 38 q 160 35 164 31 q 181 43 200 59 q 220 75 238 94 q 256 112 270 131 q 285 150 293 166 q 298 175 307 175 q 312 175 317 171 q 322 167 322 160 q 322 158 322 157 q 321 156 321 154 q 314 137 298 116 q 282 96 262 76 q 242 55 221 37 q 200 19 182 6 z m 23 -224 q 48 -224 67 -208 q 86 -193 100 -168 q 113 -142 120 -109 q 127 -76 127 -42 l 127 -31 q 106 -47 84 -66 q 62 -85 44 -106 q 27 -127 16 -150 q 4 -172 4 -193 q 4 -224 23 -224 z"},"B":{"x_min":0,"x_max":901,"ha":901,"o":"m 548 670 q 473 670 408 651 q 343 632 288 600 q 234 567 192 524 q 149 481 120 432 q 91 384 76 332 q 60 281 60 233 q 60 199 54 182 q 47 166 38 166 q 27 166 14 188 q 0 209 0 252 q 0 292 16 340 q 32 389 63 438 q 94 488 140 535 q 187 582 248 619 q 310 656 386 678 q 463 700 553 700 q 596 700 649 688 q 702 677 748 652 q 794 628 825 590 q 856 552 856 500 q 856 467 842 438 q 828 410 804 387 q 781 364 752 348 q 723 331 693 321 q 722 314 752 300 q 783 286 808 266 q 832 246 848 220 q 864 193 864 160 q 864 116 836 84 q 807 53 766 33 q 726 13 681 4 q 636 -6 602 -6 q 568 -6 534 2 q 501 10 468 22 q 436 34 404 48 q 373 61 344 72 q 316 28 285 -2 q 254 -31 222 -31 q 193 -31 172 -8 q 152 15 152 46 q 152 65 160 80 q 169 95 183 105 q 197 115 216 120 q 234 125 253 125 q 265 125 278 123 q 290 121 303 118 q 317 156 334 206 q 352 257 369 310 q 388 369 410 428 q 431 486 460 532 q 490 578 530 606 q 570 635 627 635 q 635 635 639 630 q 643 626 643 620 q 643 615 639 610 q 635 605 627 605 q 596 605 574 581 q 551 557 531 516 q 511 474 492 419 q 473 364 450 301 q 445 288 436 266 q 428 243 416 216 q 404 188 390 158 q 376 128 359 99 q 388 88 418 75 q 447 62 478 50 q 508 39 539 32 q 570 24 601 24 q 640 24 674 36 q 708 49 732 68 q 757 88 771 112 q 785 137 785 161 q 785 229 728 264 q 670 300 576 306 q 565 306 565 319 q 565 324 569 328 q 573 333 582 334 q 618 334 653 345 q 688 356 716 376 q 743 397 760 428 q 777 459 777 499 q 777 541 755 573 q 733 605 700 626 q 666 648 626 659 q 585 670 548 670 z m 221 0 q 235 0 246 10 q 258 19 267 33 q 276 47 282 62 q 289 77 293 89 q 271 95 249 95 q 214 95 198 79 q 182 63 182 45 q 182 29 192 14 q 203 0 221 0 z"},"K":{"x_min":0,"x_max":939,"ha":939,"o":"m 544 252 q 537 219 522 176 q 508 132 483 93 q 458 54 421 27 q 384 0 332 0 q 324 0 320 5 q 316 10 316 15 q 316 21 320 26 q 324 30 332 30 q 359 30 378 46 q 398 62 412 88 q 426 114 436 146 q 446 179 453 212 q 460 246 465 277 q 470 308 475 331 q 480 357 488 402 q 496 446 509 496 q 522 545 542 591 q 561 637 590 666 q 522 657 456 634 q 390 610 331 576 q 272 543 222 500 q 173 458 137 412 q 101 366 81 318 q 61 269 61 223 q 61 197 55 180 q 49 164 39 164 q 28 164 14 186 q 0 208 0 244 q 0 286 24 336 q 48 385 92 436 q 135 486 196 534 q 257 581 330 618 q 404 654 488 676 q 573 699 663 700 l 669 700 q 675 698 678 694 q 681 690 681 685 q 681 680 678 675 q 674 670 666 670 q 650 670 636 646 q 622 623 610 586 q 599 549 589 502 q 579 456 571 410 q 563 363 556 322 q 550 280 544 252 z m 875 30 q 883 30 887 26 q 891 21 891 15 q 891 10 887 5 q 883 0 875 0 q 832 0 805 21 q 778 42 758 74 q 739 106 724 143 q 709 180 690 212 q 670 244 642 265 q 614 286 570 286 q 562 286 558 291 q 555 296 555 301 q 555 306 559 311 q 563 316 571 316 q 607 316 644 333 q 682 350 718 377 q 753 404 784 437 q 816 470 840 503 q 863 536 876 565 q 890 594 890 612 q 890 634 869 634 q 861 634 857 639 q 853 644 853 649 q 853 655 857 660 q 861 664 869 664 q 914 664 934 643 q 954 622 954 589 q 954 554 934 510 q 913 467 876 426 q 840 384 790 350 q 740 316 680 299 q 721 284 746 258 q 771 232 786 202 q 801 172 810 142 q 818 111 826 86 q 834 61 844 46 q 855 30 875 30 z"},"R":{"x_min":0,"x_max":852,"ha":852,"o":"m 0 252 q 0 292 16 340 q 32 389 63 438 q 94 488 140 535 q 187 582 248 619 q 310 656 386 678 q 463 700 553 700 q 628 700 683 682 q 738 663 774 633 q 811 603 828 564 q 846 526 846 486 q 846 454 834 423 q 823 392 800 366 q 777 339 742 320 q 708 301 661 292 q 687 275 700 249 q 712 223 718 194 q 725 165 728 136 q 730 106 735 82 q 740 59 752 44 q 763 30 786 30 q 794 30 798 26 q 802 21 802 15 q 802 10 798 5 q 794 0 786 0 q 738 0 712 21 q 685 42 670 74 q 656 106 650 143 q 643 180 634 212 q 626 244 610 265 q 595 286 563 286 q 555 286 551 290 q 547 295 547 300 q 547 306 552 311 q 556 316 564 316 q 614 316 652 331 q 690 346 716 370 q 741 394 754 425 q 766 456 766 488 q 766 522 752 554 q 739 587 712 612 q 684 638 643 654 q 602 670 548 670 q 473 670 408 651 q 343 632 288 599 q 234 566 192 522 q 149 479 120 430 q 91 381 76 330 q 60 278 60 230 q 60 198 54 180 q 48 163 39 163 q 28 163 14 186 q 0 209 0 252 z m 450 301 q 444 284 432 255 q 419 226 402 192 q 385 159 364 124 q 344 90 321 62 q 298 35 272 18 q 247 0 221 0 q 212 0 207 5 q 202 10 202 15 q 202 21 207 26 q 212 30 221 30 q 235 30 250 48 q 266 66 281 94 q 296 121 310 154 q 325 188 337 219 q 349 250 358 275 q 366 300 369 310 q 388 369 410 428 q 431 486 460 532 q 490 578 530 606 q 570 635 627 635 q 635 635 639 630 q 643 626 643 620 q 643 615 639 610 q 635 605 627 605 q 596 605 573 581 q 550 557 530 516 q 511 474 492 419 q 473 364 450 301 z"},"T":{"x_min":0,"x_max":831,"ha":831,"o":"m 498 0 q 490 0 486 5 q 482 10 482 15 q 482 21 486 26 q 490 30 498 30 q 525 30 544 46 q 564 62 578 88 q 592 114 602 146 q 611 179 618 212 q 625 246 630 278 q 635 309 640 332 q 645 354 650 384 q 655 415 663 448 q 671 481 683 514 q 695 547 713 573 q 731 599 756 615 q 782 631 816 631 q 824 631 828 626 q 832 621 832 616 q 832 611 828 606 q 825 601 817 601 q 801 601 788 583 q 774 565 764 536 q 753 506 745 469 q 737 432 730 394 q 723 356 718 320 q 712 285 706 259 q 699 223 684 178 q 668 134 644 94 q 619 54 583 27 q 547 0 498 0 z m 1003 689 q 1003 651 980 636 q 958 622 920 622 q 887 622 844 630 q 801 637 753 646 q 705 655 654 662 q 603 670 553 670 q 439 670 348 628 q 256 587 192 522 q 129 458 94 380 q 60 303 60 230 q 60 198 54 181 q 48 164 39 164 q 28 164 14 187 q 0 210 0 253 q 0 293 16 341 q 32 389 64 439 q 95 489 142 536 q 190 583 253 620 q 316 656 394 678 q 473 700 567 700 q 618 700 666 694 q 714 688 756 682 q 798 675 832 669 q 866 663 890 663 q 910 663 922 669 q 933 675 933 690 q 933 695 931 696 q 929 698 929 699 q 929 703 942 706 q 954 709 971 709 q 982 709 992 706 q 1003 702 1003 689 z"},"P":{"x_min":0,"x_max":878,"ha":878,"o":"m 254 125 q 279 125 303 118 q 317 160 335 209 q 353 258 369 310 q 388 369 410 428 q 431 486 460 532 q 490 578 530 606 q 570 635 627 635 q 635 635 639 630 q 643 626 643 620 q 643 615 639 610 q 635 605 627 605 q 598 605 576 584 q 554 562 535 524 q 516 486 498 436 q 480 385 459 326 q 466 321 466 309 q 466 292 474 272 q 483 253 500 236 q 518 219 543 208 q 568 196 601 196 q 642 196 674 214 q 707 233 730 264 q 752 294 764 334 q 775 374 775 416 q 775 463 760 508 q 745 554 714 590 q 682 626 634 648 q 585 670 517 670 q 455 670 397 651 q 339 632 288 599 q 238 566 196 522 q 153 478 123 429 q 93 380 76 328 q 60 277 60 228 q 60 198 54 180 q 48 163 39 163 q 28 163 14 186 q 0 208 0 250 q 0 290 17 339 q 34 388 66 438 q 99 488 145 535 q 191 582 250 619 q 308 656 378 678 q 447 700 525 700 q 609 700 672 674 q 734 649 774 608 q 815 567 835 515 q 855 463 855 410 q 855 363 840 319 q 824 275 794 241 q 764 207 720 186 q 675 166 617 166 q 575 166 544 176 q 514 187 493 203 q 472 219 460 238 q 447 258 441 277 q 432 254 419 222 q 406 191 390 156 q 373 122 354 88 q 334 55 312 28 q 291 2 268 -14 q 245 -31 222 -31 q 193 -31 172 -8 q 152 15 152 46 q 152 65 160 80 q 169 95 183 105 q 197 115 216 120 q 234 125 254 125 z m 221 -1 q 236 -1 248 10 q 259 20 268 34 q 277 49 284 64 q 290 80 293 89 q 271 95 250 95 q 214 95 198 79 q 182 63 182 45 q 182 29 192 14 q 203 -1 221 -1 z"},"|":{"x_min":0,"x_max":145,"ha":145,"o":"m 77 -138 q 77 -144 72 -148 q 68 -152 63 -152 q 52 -152 42 -136 q 32 -119 32 -73 q 32 -50 35 -9 q 38 32 42 80 q 46 129 51 180 q 56 231 60 274 q 64 317 67 347 q 70 377 70 384 q 70 391 67 392 q 65 394 65 395 q 65 399 78 402 q 91 405 107 405 q 119 405 129 402 q 139 398 139 385 q 139 376 134 345 q 130 314 123 270 q 116 225 108 171 q 100 117 93 62 q 86 6 82 -46 q 77 -98 77 -138 z"},"t":{"x_min":0,"x_max":121,"ha":121,"o":"m -1 365 q -7 365 -12 370 q -16 374 -16 380 q -16 386 -12 390 q -7 395 -1 395 l 31 395 q 35 422 38 441 q 40 460 40 466 q 40 471 37 472 q 35 474 35 475 q 35 479 48 482 q 61 485 77 485 q 89 485 99 482 q 109 480 109 472 q 110 467 106 446 q 102 426 96 395 l 116 395 q 123 395 127 390 q 131 386 131 380 q 131 374 127 370 q 123 365 116 365 l 90 365 q 82 325 73 278 q 64 230 56 185 q 49 140 44 104 q 39 67 39 47 q 39 29 44 30 q 51 30 63 48 q 75 67 87 90 q 99 114 109 136 q 119 158 122 166 q 127 175 136 175 q 142 175 146 171 q 151 167 151 160 q 151 157 146 145 q 141 133 135 120 q 129 107 124 95 q 118 83 116 80 q 102 53 91 38 q 80 22 71 14 q 62 5 54 2 q 47 0 41 0 q 15 0 4 24 q -6 48 -6 83 q -6 104 -3 138 q 0 172 5 210 q 10 249 16 290 q 22 330 27 365 z"},"M":{"x_min":0,"x_max":1082,"ha":1082,"o":"m 669 700 q 675 698 678 694 q 681 690 681 685 q 681 680 678 675 q 674 670 666 670 q 650 670 638 650 q 667 646 692 622 q 718 599 739 563 q 760 527 776 482 q 791 438 800 390 q 804 394 807 398 q 810 402 813 406 q 828 425 851 452 q 874 478 902 506 q 930 535 962 563 q 993 591 1025 614 q 1057 636 1088 650 q 1118 664 1145 664 q 1154 664 1158 660 q 1163 655 1163 649 q 1163 644 1158 639 q 1154 634 1144 634 q 1127 634 1110 608 q 1092 582 1076 540 q 1059 498 1044 444 q 1029 390 1018 334 q 1008 277 1002 223 q 995 169 995 126 q 995 82 1002 56 q 1009 30 1026 30 q 1034 30 1038 26 q 1043 21 1043 15 q 1043 10 1038 5 q 1034 0 1026 0 q 999 0 980 16 q 960 31 948 58 q 935 84 929 120 q 923 156 923 198 q 923 246 930 298 q 937 350 950 400 q 964 451 983 497 q 1002 543 1026 579 q 979 544 929 492 q 879 441 833 382 l 807 348 q 810 328 811 308 q 812 288 812 268 q 812 228 806 193 q 800 158 787 132 q 774 106 754 90 q 734 75 706 75 q 658 75 658 121 q 658 153 680 201 q 702 249 739 305 q 733 359 722 416 q 710 472 695 518 q 680 565 662 596 q 644 626 626 628 q 611 595 598 544 q 586 493 576 439 q 567 385 559 334 q 551 284 544 252 q 537 219 522 176 q 508 132 483 93 q 458 54 421 27 q 384 0 332 0 q 324 0 320 5 q 316 10 316 15 q 316 21 320 26 q 324 30 332 30 q 359 30 378 46 q 398 62 412 88 q 426 114 436 146 q 446 179 453 212 q 460 246 465 277 q 470 308 475 331 q 480 357 488 402 q 496 446 509 496 q 522 545 542 591 q 561 637 590 666 q 522 657 456 634 q 390 610 331 576 q 272 543 222 500 q 173 458 137 412 q 101 366 81 318 q 61 269 61 223 q 61 197 55 180 q 49 164 39 164 q 28 164 14 186 q 0 208 0 244 q 0 286 24 336 q 48 385 92 436 q 135 486 196 534 q 257 581 330 618 q 404 654 488 676 q 573 699 663 700 z m 743 251 q 718 209 704 176 q 689 142 689 123 q 689 105 704 105 q 725 105 734 138 q 744 172 744 224 q 744 231 744 238 q 743 244 743 251 z"},"g":{"x_min":0,"x_max":323,"ha":323,"o":"m 204 261 q 205 265 202 267 q 200 269 200 270 q 200 274 212 277 q 225 280 241 280 q 258 280 267 274 q 276 268 276 251 q 276 240 274 222 q 271 204 267 186 q 263 167 259 150 q 255 133 253 124 l 242 69 q 268 91 289 115 q 310 139 323 166 q 328 175 337 175 q 342 175 347 171 q 352 167 352 160 q 352 158 352 157 q 351 156 351 154 q 336 118 303 86 q 270 53 231 23 q 221 -25 208 -74 q 194 -123 178 -163 q 161 -203 141 -228 q 121 -254 97 -254 q 80 -254 66 -246 q 52 -239 42 -226 q 32 -214 26 -198 q 21 -183 21 -168 q 21 -141 34 -117 q 47 -93 68 -70 q 90 -48 118 -26 q 145 -5 174 16 q 176 30 179 46 q 182 63 184 82 q 163 37 138 16 q 113 -6 78 -6 q 33 -6 12 26 q -8 58 -8 104 q -8 134 0 166 q 9 198 26 225 q 42 252 66 269 q 91 286 124 286 q 145 286 159 279 q 173 272 182 261 q 191 250 195 236 q 199 222 199 208 q 201 222 202 235 q 203 248 204 261 z m 94 24 q 110 24 124 37 q 138 50 150 70 q 161 91 170 115 q 180 139 187 161 q 186 160 182 160 q 178 160 174 164 q 171 168 171 173 l 171 175 q 173 182 174 190 q 174 197 174 202 q 174 210 172 220 q 170 229 166 237 q 161 245 154 250 q 146 256 136 256 q 118 256 104 239 q 91 222 82 196 q 72 171 67 142 q 62 112 62 87 q 62 57 70 40 q 77 24 94 24 z m 97 -224 q 105 -224 114 -204 q 124 -183 134 -153 q 143 -123 151 -89 q 159 -55 165 -28 q 142 -46 121 -63 q 100 -80 84 -98 q 69 -115 60 -132 q 51 -150 51 -168 q 51 -187 64 -206 q 76 -224 97 -224 z"},"j":{"x_min":0,"x_max":128,"ha":128,"o":"m 155 153 q 140 118 104 74 q 69 29 29 -8 q 19 -51 6 -95 q -7 -139 -22 -174 q -38 -209 -58 -232 q -77 -254 -99 -254 q -119 -254 -132 -238 q -145 -222 -145 -198 q -145 -176 -134 -152 q -122 -128 -104 -104 q -87 -80 -67 -58 q -47 -37 -29 -21 q -14 48 -6 119 q 3 190 9 261 q 9 266 6 267 q 4 269 4 270 q 4 274 17 277 q 30 280 46 280 q 63 280 72 274 q 80 268 80 251 q 80 240 77 222 q 74 204 70 184 q 67 164 62 144 q 58 124 55 110 l 41 43 q 72 77 94 110 q 116 143 127 166 q 132 175 141 175 q 147 175 152 171 q 156 167 156 159 q 156 155 155 153 z m 17 355 q 17 373 28 385 q 40 397 59 397 q 74 397 83 388 q 92 380 92 365 q 92 348 80 336 q 68 323 49 323 q 17 323 17 355 z m -100 -224 q -93 -224 -85 -210 q -77 -197 -69 -175 q -61 -153 -54 -126 q -46 -99 -40 -73 q -53 -88 -66 -105 q -80 -122 -90 -139 q -101 -156 -108 -172 q -115 -187 -115 -199 q -115 -210 -110 -217 q -105 -224 -100 -224 z"},"i":{"x_min":0,"x_max":121,"ha":121,"o":"m 40 0 q 15 0 4 25 q -7 50 -7 88 q -7 111 -4 137 q 0 163 4 187 q 7 211 10 230 q 14 250 14 260 q 14 266 12 267 q 10 269 10 270 q 10 274 22 277 q 35 280 51 280 q 63 280 74 277 q 84 274 84 265 q 84 258 77 230 q 70 201 61 166 q 52 130 45 96 q 38 63 38 45 q 38 29 44 29 q 51 30 63 48 q 75 67 87 90 q 99 114 108 136 q 118 158 121 166 q 126 175 135 175 q 141 175 146 171 q 150 167 150 160 q 150 157 145 145 q 140 133 134 120 q 128 107 122 95 q 117 83 115 80 q 101 53 90 38 q 79 22 70 14 q 61 5 54 2 q 46 0 40 0 z m 20 355 q 20 373 32 385 q 43 397 62 397 q 77 397 86 388 q 95 380 95 365 q 95 348 83 336 q 71 323 52 323 q 20 323 20 355 z"},"y":{"x_min":0,"x_max":293,"ha":293,"o":"m 52 280 q 63 280 74 276 q 84 273 84 261 q 84 251 77 226 q 70 200 62 170 q 54 139 47 108 q 40 77 40 56 q 40 43 44 34 q 48 24 60 24 q 79 24 97 48 q 115 73 130 108 q 145 144 156 184 q 168 223 174 253 l 174 261 q 175 265 172 267 q 170 269 170 270 q 170 274 182 277 q 195 280 211 280 q 228 280 237 274 q 246 268 246 251 q 246 240 244 222 q 241 204 237 186 q 233 167 229 150 q 225 133 223 124 l 212 69 q 238 91 259 115 q 280 139 293 166 q 298 175 307 175 q 312 175 317 171 q 322 167 322 160 q 322 158 322 157 q 321 156 321 154 q 306 118 273 86 q 240 53 201 23 q 191 -25 178 -74 q 164 -123 148 -163 q 131 -203 111 -228 q 91 -254 67 -254 q 50 -254 36 -246 q 22 -239 12 -226 q 2 -214 -4 -198 q -9 -183 -9 -168 q -9 -141 4 -117 q 17 -93 38 -70 q 60 -48 88 -26 q 115 -5 144 16 l 155 91 q 138 50 114 22 q 90 -6 58 -6 q 39 -6 26 4 q 14 15 7 32 q 0 48 -3 67 q -6 86 -6 102 q -6 123 -3 147 q 0 171 4 193 q 8 215 11 233 q 14 251 14 260 q 14 266 12 267 q 10 269 10 270 q 10 274 22 277 q 35 280 52 280 z m 67 -224 q 75 -224 84 -204 q 94 -183 104 -153 q 113 -123 121 -89 q 129 -55 135 -28 q 112 -46 91 -63 q 70 -80 54 -98 q 39 -115 30 -132 q 21 -150 21 -168 q 21 -187 34 -206 q 46 -224 67 -224 z"},"@":{"x_min":0,"x_max":597,"ha":597,"o":"m 65 160 q 65 210 83 259 q 101 308 137 347 q 173 386 226 410 q 279 434 349 434 q 406 434 447 418 q 488 401 515 373 q 542 345 554 308 q 567 271 567 231 q 567 180 548 128 q 528 76 492 34 q 456 -8 404 -34 q 353 -61 289 -61 q 232 -61 190 -42 q 148 -24 120 7 q 93 38 79 78 q 65 117 65 160 z m 312 326 q 333 326 347 319 q 361 312 370 300 q 378 289 382 274 q 386 260 387 246 q 395 284 395 300 q 395 306 392 307 q 390 309 390 310 q 390 314 403 317 q 416 320 432 320 q 444 320 454 317 q 465 314 465 306 q 465 301 462 286 q 458 271 453 250 q 448 230 442 206 q 436 181 431 158 q 426 135 422 116 q 419 96 419 84 q 419 70 424 70 q 431 74 443 90 q 455 106 467 130 q 479 155 488 185 q 496 215 496 247 q 496 277 488 306 q 481 334 463 356 q 445 377 415 390 q 385 404 340 404 q 289 404 251 382 q 213 360 187 325 q 161 290 148 246 q 135 202 135 158 q 135 121 144 87 q 154 53 172 27 q 191 1 220 -14 q 248 -30 287 -30 q 329 -30 364 -11 q 400 8 426 40 l 421 40 q 396 40 385 64 q 374 88 374 126 q 353 79 327 56 q 301 34 266 34 q 221 34 200 66 q 180 98 180 144 q 180 174 188 206 q 197 238 214 265 q 230 292 254 309 q 279 326 312 326 z m 282 64 q 298 64 312 77 q 326 90 338 110 q 349 131 358 155 q 368 179 375 201 q 374 200 370 200 q 366 200 362 204 q 359 208 359 213 l 359 215 q 361 222 362 230 q 362 237 362 242 q 362 250 360 260 q 358 269 354 277 q 349 285 342 290 q 334 296 324 296 q 306 296 292 279 q 279 262 270 236 q 260 211 255 182 q 250 152 250 127 q 250 97 258 80 q 265 64 282 64 z"},".":{"x_min":0,"x_max":110,"ha":110,"o":"m 14 30 q 14 47 25 58 q 36 69 53 69 q 84 69 84 39 q 84 22 73 11 q 62 0 45 0 q 14 0 14 30 z"},"p":{"x_min":0,"x_max":297,"ha":297,"o":"m -33 -124 q -33 -101 -30 -66 q -26 -30 -22 10 q -17 51 -11 92 q -5 134 0 169 q 4 204 8 228 q 11 253 11 260 q 11 266 8 267 q 7 267 7 269 q 7 273 20 276 q 32 280 48 280 q 60 280 70 276 q 81 273 81 259 q 81 254 76 229 q 112 286 165 286 q 210 286 231 254 q 252 223 252 177 q 252 154 247 131 q 242 108 233 85 q 248 93 259 104 q 270 115 278 127 q 285 139 290 150 q 294 160 297 166 q 301 173 309 173 q 321 173 323 167 q 325 161 325 153 q 322 145 314 129 q 306 113 292 96 q 279 80 260 66 q 241 52 214 49 q 197 25 174 10 q 150 -6 120 -6 q 99 -6 85 1 q 71 8 62 20 q 53 31 49 46 q 45 60 44 74 q 32 10 22 -59 q 12 -128 12 -188 q 12 -193 8 -198 q 4 -202 -2 -202 q -12 -202 -22 -185 q -33 -168 -33 -124 z m 56 119 q 58 120 61 120 q 66 120 70 116 q 73 113 73 108 l 73 105 q 71 98 70 90 q 70 83 70 78 q 70 70 72 60 q 74 51 78 43 q 83 35 90 30 q 98 24 108 24 q 125 24 138 41 q 152 58 162 84 q 171 109 176 138 q 181 168 181 193 q 181 223 174 240 q 166 256 149 256 q 133 256 120 243 q 106 230 94 210 q 82 190 72 166 q 63 142 56 119 z"},"X":{"x_min":0,"x_max":930,"ha":930,"o":"m 640 285 q 601 229 562 178 q 523 126 485 86 q 447 47 410 24 q 373 0 339 0 q 330 0 325 5 q 320 10 320 15 q 320 21 325 26 q 330 30 339 30 q 362 30 390 60 q 419 90 453 138 q 487 187 526 249 q 565 311 607 375 q 586 432 564 486 q 541 539 513 580 q 485 621 450 646 q 415 670 369 670 q 313 670 258 634 q 203 597 159 536 q 115 476 88 397 q 61 318 61 232 q 61 164 39 164 q 28 164 14 187 q 0 210 0 254 q 0 347 33 428 q 66 510 120 570 q 175 631 244 666 q 314 701 387 701 q 441 701 484 682 q 527 663 561 630 q 595 598 620 554 q 646 511 667 462 q 702 510 739 554 q 776 597 814 629 q 853 661 892 680 q 931 699 971 699 q 979 699 983 694 q 987 690 987 684 q 987 679 983 674 q 979 669 971 669 q 945 669 914 644 q 883 620 848 579 q 814 538 777 484 q 740 431 701 374 q 723 310 742 248 q 760 187 780 138 q 800 90 824 60 q 849 31 883 31 q 894 31 900 26 q 907 21 907 15 q 907 9 901 4 q 895 0 883 0 q 837 0 801 24 q 765 47 736 86 q 707 126 684 178 q 661 229 640 285 z"},"*":{"x_min":0,"x_max":281,"ha":281,"o":"m 62 216 q 59 216 54 222 q 50 228 46 236 q 42 245 40 254 q 37 264 37 271 q 37 278 41 280 q 48 284 62 286 q 77 289 112 299 q 78 317 66 322 q 55 327 49 332 q 45 335 45 343 q 45 350 48 358 q 50 366 54 374 q 57 381 62 386 q 66 391 69 391 q 71 391 71 390 q 71 390 71 389 q 71 387 73 386 q 75 384 85 378 q 90 374 99 366 q 108 359 118 349 q 119 359 120 368 q 122 376 123 384 q 124 388 124 392 q 124 395 124 398 q 124 404 121 405 q 120 406 120 408 q 120 412 132 415 q 144 418 157 418 q 163 418 167 418 q 171 417 173 417 q 181 415 188 412 q 194 410 194 403 q 194 398 190 390 q 185 383 180 369 l 192 378 q 202 384 204 386 q 206 387 206 389 q 206 390 206 390 q 207 391 208 391 q 211 391 216 386 q 220 381 224 373 q 228 365 230 356 q 232 348 232 341 q 232 335 228 332 q 225 329 222 327 q 218 325 211 322 q 204 319 193 314 q 182 308 165 299 q 200 289 214 286 q 229 284 236 280 q 240 278 240 271 q 240 264 238 254 q 235 245 231 236 q 227 228 222 222 q 218 216 215 216 q 214 218 212 220 q 209 221 200 225 q 194 227 184 234 q 173 240 162 249 q 161 241 161 234 q 161 226 161 221 q 161 216 157 212 q 153 207 147 207 q 134 207 127 220 q 120 233 117 250 q 106 241 94 234 q 83 227 77 225 q 68 221 66 220 q 63 218 62 216 z"},"Y":{"x_min":0,"x_max":921,"ha":921,"o":"m 39 164 q 28 164 14 187 q 0 210 0 254 q 0 347 33 428 q 66 510 118 570 q 171 631 237 666 q 303 701 370 701 q 423 701 456 680 q 489 660 508 626 q 527 593 534 552 q 541 510 541 468 q 541 430 538 394 q 534 359 529 333 q 526 315 522 290 q 517 264 512 236 q 508 207 505 177 q 502 147 502 121 q 502 83 511 57 q 520 31 543 31 q 566 31 592 54 q 618 78 644 114 q 671 151 696 196 q 721 241 742 284 q 763 327 778 364 q 794 400 801 419 q 816 477 832 528 q 849 579 870 618 q 891 656 917 678 q 943 700 975 700 q 983 700 987 695 q 991 690 991 685 q 991 680 988 675 q 984 670 976 670 q 957 670 941 634 q 925 598 910 540 q 896 481 880 406 q 865 331 846 252 q 828 174 804 99 q 780 24 748 -34 q 717 -93 676 -129 q 635 -165 582 -165 q 574 -165 570 -160 q 566 -155 566 -150 q 566 -144 570 -140 q 574 -135 582 -135 q 618 -135 645 -102 q 672 -68 693 -13 q 714 42 732 113 q 749 184 765 259 q 750 228 733 198 q 716 167 697 138 q 678 110 660 85 q 642 60 622 41 q 602 22 578 12 q 554 1 524 1 q 493 1 473 12 q 453 24 442 43 q 430 62 426 86 q 421 111 421 138 q 421 175 426 210 q 431 245 436 271 q 439 291 444 317 q 449 343 453 372 q 457 402 460 434 q 463 465 463 496 q 463 531 458 562 q 453 594 441 618 q 429 642 408 656 q 388 670 356 670 q 305 670 252 634 q 200 597 158 536 q 115 476 88 397 q 61 318 61 232 q 61 164 39 164 z"},"c":{"x_min":0,"x_max":240,"ha":240,"o":"m 270 160 q 270 158 269 157 q 258 129 242 100 q 226 71 205 47 q 184 23 158 8 q 131 -7 99 -7 q 52 -7 22 24 q -8 56 -8 112 q -8 142 2 173 q 11 204 29 229 q 47 254 72 270 q 98 286 129 286 q 164 286 184 266 q 203 247 203 218 q 203 199 196 190 q 188 180 179 180 l 178 180 q 169 180 161 190 q 153 199 153 218 q 153 230 148 243 q 144 256 130 256 q 117 256 104 240 q 92 225 82 201 q 72 177 66 148 q 61 120 61 94 q 61 55 74 39 q 86 23 106 23 q 129 23 150 38 q 171 54 188 76 q 206 99 220 124 q 234 148 241 166 q 244 175 255 175 q 261 175 266 171 q 270 167 270 160 z"},"!":{"x_min":0,"x_max":182,"ha":182,"o":"m 115 102 q 115 88 101 88 q 91 88 80 105 q 70 122 70 168 q 70 202 76 248 q 82 295 89 340 q 96 385 102 420 q 108 455 108 465 q 108 471 106 473 q 104 473 104 475 q 104 479 116 482 q 129 485 145 485 q 157 485 168 482 q 178 478 178 464 q 178 451 168 416 q 158 380 146 330 q 135 281 125 222 q 115 163 115 102 z m 61 30 q 61 47 72 58 q 83 69 100 69 q 131 69 131 39 q 131 22 120 11 q 109 0 92 0 q 61 0 61 30 z"},"/":{"x_min":0,"x_max":206,"ha":206,"o":"m 72 14 q 69 3 58 3 q 45 3 41 18 q 37 34 37 44 q 37 52 38 63 q 39 74 43 89 q 48 111 59 144 q 70 178 84 216 q 98 254 113 293 q 128 332 141 365 q 154 398 163 422 q 172 445 173 451 l 173 455 q 173 458 171 460 q 170 461 170 462 q 172 466 186 466 q 192 466 202 465 q 211 464 220 461 q 228 458 234 453 q 241 448 241 440 q 241 437 240 434 q 238 426 228 402 q 217 379 201 346 q 185 312 166 271 q 148 230 130 186 q 112 142 96 98 q 81 53 72 14 z"},"6":{"x_min":0,"x_max":342,"ha":342,"o":"m 282 455 q 260 455 237 438 q 214 422 192 395 q 171 368 152 333 q 133 298 119 261 q 134 269 152 274 q 169 280 189 280 q 224 280 248 270 q 273 261 290 245 q 306 229 314 208 q 321 186 321 163 q 321 134 310 105 q 298 76 277 52 q 256 29 226 14 q 195 0 157 0 q 120 0 94 12 q 68 23 52 44 q 35 64 27 92 q 19 119 19 150 q 19 203 40 262 q 60 321 96 370 q 131 420 178 452 q 226 485 280 485 q 289 485 294 480 q 298 475 298 470 q 298 464 294 460 q 290 455 282 455 z m 187 249 q 164 249 142 238 q 121 228 104 215 q 90 164 90 123 q 90 82 106 56 q 122 30 159 30 q 182 30 199 41 q 216 52 228 70 q 239 88 245 110 q 251 132 251 154 q 251 172 247 190 q 243 207 235 220 q 227 233 215 241 q 203 249 187 249 z"},"r":{"x_min":0,"x_max":239,"ha":239,"o":"m 0 166 q 9 188 17 210 q 25 231 33 255 q 21 273 21 305 q 21 328 30 337 q 39 346 50 346 q 63 346 68 336 q 72 327 72 316 q 72 299 62 262 q 73 256 89 256 q 101 256 112 258 q 124 261 132 265 q 130 267 130 267 q 128 269 128 270 q 128 274 140 277 q 153 280 170 280 q 181 280 192 277 q 202 274 202 266 q 202 261 198 246 q 195 231 190 210 q 185 190 179 166 q 173 141 168 118 q 163 95 160 76 q 156 56 156 44 q 156 29 162 30 q 169 30 181 48 q 193 67 205 90 q 217 114 227 136 q 237 159 240 166 q 243 175 254 175 q 260 175 264 171 q 269 167 269 160 q 269 157 264 145 q 259 133 253 120 q 247 107 242 95 q 236 83 234 80 q 220 53 209 38 q 198 22 189 14 q 180 5 172 2 q 165 0 159 0 q 134 0 123 25 q 112 50 112 88 q 112 106 114 125 q 116 144 118 163 q 121 182 124 200 q 127 217 129 231 q 119 227 108 226 q 97 226 89 226 q 78 226 71 228 q 64 229 58 231 q 47 205 40 186 q 32 166 27 154 q 24 146 16 146 q 10 146 4 150 q -1 154 -1 160 q -1 164 0 166 z"},"2":{"x_min":0,"x_max":372,"ha":372,"o":"m 204 455 q 181 455 164 444 q 147 433 136 415 q 124 397 118 375 q 112 353 112 331 q 112 308 100 296 q 88 284 74 284 q 61 284 52 293 q 42 302 42 322 q 42 351 54 380 q 65 409 86 432 q 107 456 138 470 q 168 485 206 485 q 243 485 269 474 q 295 462 312 443 q 328 424 336 400 q 344 375 344 349 q 344 303 324 260 q 303 216 270 178 q 237 139 196 106 q 156 74 117 49 q 146 49 176 52 q 205 56 230 60 q 256 64 276 67 q 297 70 308 70 q 309 70 310 70 q 312 72 312 72 q 314 74 315 74 q 319 74 322 62 q 325 49 325 33 q 325 27 324 22 q 323 16 319 12 q 315 7 306 4 q 298 1 284 1 l 281 1 q 272 1 214 2 q 156 4 34 4 q 20 4 20 18 q 20 31 40 39 q 54 51 76 72 q 99 92 124 118 q 150 145 176 176 q 203 206 224 240 q 246 273 260 307 q 273 341 273 373 q 273 405 257 430 q 241 455 204 455 z"},"9":{"x_min":0,"x_max":342,"ha":342,"o":"m 60 30 q 82 30 105 46 q 128 63 150 90 q 171 117 190 152 q 209 187 223 224 q 208 216 190 210 q 173 205 153 205 q 119 205 94 214 q 69 224 52 240 q 36 256 28 278 q 21 299 21 322 q 21 351 32 380 q 44 409 65 432 q 86 456 116 470 q 147 485 185 485 q 222 485 248 474 q 274 462 290 442 q 307 421 315 394 q 323 367 323 335 q 323 282 302 223 q 282 164 246 114 q 211 65 164 32 q 116 0 62 0 q 53 0 48 5 q 44 10 44 15 q 44 21 48 26 q 52 30 60 30 z m 155 236 q 178 236 200 246 q 221 257 238 270 q 252 321 252 362 q 252 403 236 429 q 220 455 183 455 q 160 455 143 444 q 126 433 114 415 q 103 397 97 375 q 91 353 91 331 q 91 313 95 296 q 99 278 107 265 q 115 252 127 244 q 139 236 155 236 z"}," ":{"x_min":0,"x_max":175,"ha":175,"o":""},"I":{"x_min":0,"x_max":646,"ha":646,"o":"m 544 252 q 537 219 522 176 q 508 132 483 93 q 458 54 421 27 q 384 0 332 0 q 324 0 320 5 q 316 10 316 15 q 316 21 320 26 q 324 30 332 30 q 359 30 378 46 q 398 62 412 88 q 426 114 436 146 q 446 179 453 212 q 460 246 465 277 q 470 308 475 331 q 480 357 488 402 q 496 446 509 496 q 522 545 542 591 q 561 637 590 666 q 522 657 456 634 q 390 610 331 576 q 272 543 222 500 q 173 458 137 412 q 101 366 81 318 q 61 269 61 223 q 61 197 55 180 q 49 164 39 164 q 28 164 14 186 q 0 208 0 244 q 0 286 24 336 q 48 385 92 436 q 135 486 196 534 q 257 581 330 618 q 404 654 488 676 q 573 699 663 700 l 669 700 q 675 698 678 694 q 681 690 681 685 q 681 680 678 675 q 674 670 666 670 q 650 670 636 646 q 622 623 610 586 q 599 549 589 502 q 579 456 571 410 q 563 363 556 322 q 550 280 544 252 z"},"H":{"x_min":0,"x_max":933,"ha":933,"o":"m 327 30 q 360 30 384 54 q 407 79 423 116 q 439 152 449 194 q 459 237 466 273 q 436 272 406 268 q 375 264 346 253 q 289 232 261 196 q 233 159 233 127 q 233 110 240 93 q 248 76 260 62 q 273 48 290 39 q 308 30 327 30 z m 60 233 q 60 199 54 182 q 47 166 38 166 q 27 166 14 188 q 0 210 0 253 q 0 295 24 344 q 49 393 93 442 q 137 492 199 538 q 261 585 335 621 q 409 657 494 678 q 579 700 669 700 q 675 700 678 695 q 681 690 681 685 q 681 680 678 675 q 674 670 666 670 q 652 670 640 652 q 627 635 616 606 q 605 576 596 538 q 587 500 579 460 q 571 419 564 378 q 558 338 552 304 l 558 304 q 588 304 624 303 q 660 302 692 300 q 725 299 750 298 q 774 296 781 296 q 790 362 810 428 q 829 494 857 546 q 885 599 920 632 q 956 664 996 664 q 1005 664 1010 660 q 1014 655 1014 649 q 1014 644 1010 639 q 1005 634 995 634 q 978 634 960 608 q 943 582 926 540 q 910 498 895 444 q 880 390 869 334 q 858 277 852 223 q 845 169 845 126 q 845 83 852 56 q 860 30 877 30 q 885 30 890 26 q 894 21 894 15 q 894 10 890 5 q 885 0 877 0 q 850 0 830 16 q 811 31 798 58 q 786 84 780 120 q 774 157 774 199 q 774 232 777 266 q 754 268 725 270 q 696 271 666 272 q 635 272 604 273 q 573 274 546 274 q 538 234 524 186 q 510 138 486 96 q 463 55 428 28 q 393 0 342 0 q 312 0 286 10 q 261 21 242 39 q 224 57 214 80 q 203 103 203 127 q 203 173 239 216 q 275 259 339 282 q 372 294 406 298 q 439 302 471 304 q 477 333 486 382 q 494 431 508 484 q 522 538 542 588 q 562 637 590 666 q 487 653 392 610 q 296 566 222 506 q 149 445 104 374 q 60 302 60 233 z"},"4":{"x_min":0,"x_max":361,"ha":361,"o":"m 269 16 q 269 2 255 2 q 245 2 234 18 q 224 35 224 79 q 224 102 228 138 q 231 174 236 216 q 190 214 157 209 q 124 204 100 198 q 76 193 61 189 q 46 185 36 185 q 19 185 14 196 q 10 206 10 218 q 10 223 10 227 q 10 231 11 235 q 11 243 13 256 q 15 268 20 291 q 26 318 34 346 q 43 374 50 398 q 58 422 64 440 q 69 458 71 466 q 72 471 72 472 q 73 473 73 474 q 73 477 71 479 q 70 480 70 481 q 72 485 86 485 q 92 485 102 484 q 111 483 120 480 q 128 477 134 472 q 141 467 141 459 q 141 456 140 452 q 137 442 129 426 q 121 411 110 388 q 99 365 86 332 q 73 300 60 256 q 88 258 124 260 q 161 262 193 262 q 207 262 219 262 q 231 261 241 260 q 246 296 250 330 q 255 365 259 394 q 263 422 266 442 q 268 462 268 468 q 268 469 268 470 q 268 472 266 472 q 264 474 264 475 q 264 479 276 482 q 289 485 305 485 q 317 485 328 482 q 338 478 338 464 q 338 457 334 436 q 330 416 324 387 q 318 358 310 322 q 303 285 296 246 q 305 240 305 231 q 305 217 291 217 q 281 165 275 113 q 269 61 269 16 z"},"~":{"x_min":0,"x_max":402,"ha":402,"o":"m 74 153 q 66 153 60 168 q 54 184 54 201 q 54 215 60 226 q 67 237 86 237 q 102 237 130 230 q 157 222 188 214 q 218 205 247 198 q 276 190 294 190 q 303 190 310 192 q 318 195 323 202 q 325 205 328 205 q 333 205 336 198 q 340 192 340 182 q 340 170 330 159 q 320 148 293 148 q 278 148 252 152 q 226 155 198 160 q 171 164 146 168 q 121 171 107 171 q 84 171 78 157 q 77 153 74 153 z"},"D":{"x_min":0,"x_max":937,"ha":937,"o":"m 0 253 q 0 293 15 341 q 30 389 60 439 q 89 489 132 536 q 176 583 234 620 q 291 656 362 678 q 434 700 518 700 q 617 700 690 670 q 762 639 810 588 q 857 538 880 474 q 902 410 902 342 q 902 281 884 219 q 866 157 830 107 q 795 57 744 26 q 692 -6 624 -6 q 589 -6 556 2 q 522 11 490 23 q 457 35 427 49 q 397 63 368 74 q 342 30 312 0 q 282 -30 250 -30 q 221 -30 200 -7 q 180 16 180 47 q 180 66 188 81 q 197 96 211 106 q 225 116 244 121 q 262 126 281 126 q 293 126 306 124 q 318 122 330 119 q 344 162 358 210 q 371 259 387 310 q 406 369 429 428 q 452 486 484 532 q 515 578 556 606 q 598 635 655 635 q 663 635 667 630 q 671 626 671 620 q 671 615 667 610 q 663 605 655 605 q 624 605 600 581 q 576 557 554 516 q 532 474 512 419 q 491 364 468 301 q 463 288 455 266 q 447 243 436 216 q 425 188 412 158 q 398 129 383 100 q 410 89 438 76 q 466 62 494 50 q 523 39 552 32 q 581 24 609 24 q 662 24 702 52 q 742 79 768 124 q 795 169 808 227 q 822 285 822 346 q 822 409 806 468 q 791 526 756 571 q 721 616 663 643 q 605 670 521 670 q 415 670 330 628 q 244 587 184 523 q 124 459 92 382 q 60 305 60 233 q 60 199 54 182 q 47 166 38 166 q 27 166 14 188 q 0 210 0 253 z m 320 87 q 320 88 320 88 q 321 89 321 90 q 299 96 277 96 q 242 96 226 80 q 210 64 210 46 q 210 30 220 15 q 231 0 249 0 q 264 0 276 12 q 289 23 298 38 q 307 53 312 67 q 318 81 320 87 z"},"^":{"x_min":0,"x_max":240,"ha":240,"o":"m 214 310 q 214 307 208 302 q 202 298 194 294 q 185 290 176 288 q 166 285 159 285 q 153 285 151 289 q 149 292 147 306 q 145 319 142 337 q 139 355 135 375 q 131 395 126 412 q 117 395 110 376 q 103 358 98 342 q 93 326 90 314 q 86 303 84 300 q 81 296 74 296 q 67 296 58 298 q 49 301 42 304 q 34 308 28 312 q 23 317 24 320 q 25 322 25 322 q 25 322 26 322 q 28 322 30 324 q 31 326 37 336 q 41 342 52 360 q 64 379 78 398 q 91 418 106 433 q 120 448 130 448 q 141 448 153 432 q 165 415 176 394 q 187 372 195 352 q 203 332 206 325 q 209 316 210 314 q 212 311 214 310 z"},"0":{"x_min":0,"x_max":438,"ha":438,"o":"m 252 485 q 297 485 328 470 q 359 454 378 428 q 397 401 405 367 q 413 333 413 296 q 413 244 398 191 q 384 138 356 96 q 327 53 286 26 q 245 0 192 0 q 149 0 118 18 q 86 35 66 64 q 45 94 35 132 q 25 171 25 212 q 25 261 39 310 q 53 359 81 398 q 109 437 152 461 q 195 485 252 485 z m 243 455 q 204 455 176 432 q 148 410 130 374 q 112 339 104 294 q 95 249 95 204 q 95 171 100 140 q 105 108 116 84 q 127 60 145 46 q 163 31 190 31 q 226 31 254 56 q 282 81 302 120 q 322 160 332 209 q 343 258 343 305 q 343 335 338 362 q 333 389 322 410 q 310 430 291 442 q 272 455 243 455 z"},"F":{"x_min":0,"x_max":931,"ha":931,"o":"m 505 0 q 475 0 450 10 q 424 21 406 39 q 387 57 376 80 q 366 103 366 127 q 366 173 402 216 q 438 259 502 282 q 535 294 568 298 q 602 302 634 304 l 638 324 q 643 348 648 380 q 654 412 662 446 q 671 480 683 513 q 695 546 713 572 q 731 599 756 615 q 782 631 816 631 q 824 631 828 626 q 832 621 832 616 q 832 611 828 606 q 825 601 817 601 q 796 601 780 572 q 764 543 752 498 q 740 454 731 402 q 722 350 714 304 l 721 304 q 753 304 788 303 q 822 302 851 300 q 884 298 916 296 q 924 295 927 290 q 930 286 930 281 q 930 275 926 270 q 923 265 916 266 q 869 270 814 272 q 760 273 709 274 q 700 234 686 186 q 673 138 650 97 q 626 56 591 28 q 556 0 505 0 z m 553 670 q 439 670 348 628 q 256 587 192 522 q 129 458 94 380 q 60 303 60 230 q 60 198 54 181 q 48 164 39 164 q 28 164 14 187 q 0 210 0 253 q 0 293 16 341 q 32 389 64 439 q 95 489 142 536 q 190 583 253 620 q 316 656 395 678 q 474 700 568 700 q 618 700 666 694 q 714 688 756 682 q 798 675 832 669 q 866 663 890 663 q 910 663 922 669 q 933 675 933 690 q 933 695 931 696 q 929 698 929 699 q 929 703 942 706 q 954 709 971 709 q 982 709 992 706 q 1003 702 1003 689 q 1003 651 980 636 q 958 622 920 622 q 887 622 844 630 q 801 637 753 646 q 705 655 654 662 q 603 670 553 670 z m 490 30 q 523 30 546 54 q 569 79 585 116 q 601 152 612 194 q 622 237 629 273 q 599 272 568 268 q 538 264 509 253 q 452 232 424 196 q 396 159 396 127 q 396 110 404 93 q 411 76 424 62 q 436 48 454 39 q 471 30 490 30 z"},"`":{"x_min":0,"x_max":135,"ha":135,"o":"m 80 616 q 82 612 84 601 q 86 590 89 574 q 92 559 98 540 q 103 522 113 503 q 116 498 116 496 q 117 495 117 494 q 117 489 113 486 q 109 484 104 484 q 94 484 82 496 q 70 509 60 526 q 49 542 40 558 q 32 573 29 579 q 24 590 22 592 q 21 594 19 594 l 19 594 q 18 595 18 596 q 18 599 24 604 q 29 608 37 612 q 45 615 54 618 q 62 620 69 620 q 77 620 80 616 z"},"k":{"x_min":0,"x_max":278,"ha":278,"o":"m 39 16 q 39 2 25 2 q 15 2 4 18 q -6 35 -6 79 q -6 102 -2 138 q 1 174 6 214 q 10 255 16 297 q 22 339 26 374 q 31 410 34 435 q 38 460 38 468 q 38 469 38 470 q 38 472 36 472 q 34 474 34 475 q 34 479 46 482 q 59 485 75 485 q 87 485 98 482 q 108 478 108 464 q 108 454 102 422 q 95 391 86 346 q 76 301 66 248 q 56 195 49 141 q 51 146 52 150 q 54 153 55 155 q 63 172 75 194 q 87 217 104 237 q 121 257 143 272 q 165 286 193 286 q 211 286 221 280 q 231 275 236 267 q 241 259 242 251 q 244 243 244 238 q 244 220 235 202 q 226 183 212 167 q 198 151 181 138 q 164 126 149 120 q 166 120 176 106 q 185 92 190 73 q 194 58 196 44 q 197 30 200 30 q 207 30 219 48 q 231 67 243 90 q 255 114 265 136 q 275 159 278 166 q 281 175 292 175 q 298 175 302 171 q 307 167 307 160 q 307 157 302 145 q 297 133 291 120 q 285 107 280 95 q 274 83 272 80 q 258 53 247 38 q 236 22 227 14 q 218 5 210 2 q 202 0 195 0 q 166 0 152 18 q 137 35 129 56 q 121 76 114 92 q 108 109 93 109 q 78 109 78 124 q 78 130 82 134 q 86 139 93 139 q 110 139 128 150 q 146 162 160 178 q 175 195 184 212 q 194 230 194 242 q 194 251 189 254 q 184 256 179 256 q 157 256 134 228 q 112 201 93 164 q 74 127 60 90 q 45 52 39 32 z"},"u":{"x_min":0,"x_max":282,"ha":282,"o":"m 212 280 q 223 280 234 277 q 244 274 244 266 q 244 261 240 246 q 237 231 232 210 q 227 190 222 166 q 216 141 211 118 q 206 95 202 76 q 199 56 199 44 q 199 29 204 30 q 211 30 223 48 q 235 67 247 90 q 259 114 269 136 q 279 158 282 166 q 285 175 296 175 q 302 175 306 171 q 311 167 311 160 q 311 157 306 145 q 301 133 295 120 q 289 107 284 95 q 278 83 276 80 q 262 53 251 38 q 240 22 231 14 q 222 5 214 2 q 207 0 201 0 q 176 0 165 25 q 154 50 154 88 q 136 48 112 21 q 89 -6 58 -6 q 39 -6 26 4 q 14 15 7 32 q 0 48 -3 67 q -6 86 -6 102 q -6 123 -3 147 q 0 171 4 193 q 8 215 11 233 q 14 251 14 260 q 14 266 12 267 q 10 269 10 270 q 10 274 22 277 q 35 280 52 280 q 63 280 74 276 q 84 273 84 261 q 84 251 77 226 q 70 200 62 170 q 54 139 47 108 q 40 77 40 56 q 40 43 44 34 q 48 24 60 24 q 80 24 98 50 q 116 76 132 113 q 147 150 158 190 q 169 231 175 260 l 175 262 q 175 267 172 267 q 170 269 170 270 q 170 274 183 277 q 196 280 212 280 z"},"U":{"x_min":0,"x_max":948,"ha":948,"o":"m 58 164 q 47 164 33 187 q 19 210 19 254 q 19 347 52 428 q 85 510 138 570 q 190 631 256 666 q 322 701 389 701 q 441 701 474 680 q 508 660 527 627 q 546 594 553 552 q 560 511 560 469 q 560 429 556 392 q 552 356 547 329 q 544 312 540 287 q 535 262 531 233 q 527 204 524 174 q 521 143 521 116 q 521 77 530 50 q 538 24 561 24 q 584 24 610 50 q 637 75 664 114 q 691 154 718 202 q 744 250 766 296 q 788 342 804 380 q 821 419 828 438 q 843 485 862 526 q 881 567 904 598 q 928 628 954 646 q 981 664 1011 664 q 1020 664 1024 660 q 1029 655 1029 649 q 1029 644 1024 639 q 1020 634 1010 634 q 993 634 976 608 q 958 582 942 540 q 925 498 910 444 q 895 390 884 334 q 873 277 866 223 q 860 169 860 126 q 860 83 868 56 q 875 30 892 30 q 900 30 904 26 q 909 21 909 15 q 909 10 904 5 q 900 0 892 0 q 865 0 846 16 q 826 31 814 58 q 801 84 795 120 q 789 157 789 199 q 789 219 790 239 q 792 259 794 280 q 777 245 758 208 q 738 172 716 138 q 697 110 679 84 q 661 57 640 38 q 620 18 596 6 q 572 -6 542 -6 q 511 -6 492 6 q 472 18 460 38 q 449 57 444 82 q 440 108 440 135 q 440 171 445 206 q 450 240 454 263 q 458 284 462 311 q 467 338 472 368 q 476 399 479 432 q 482 464 482 495 q 482 530 477 562 q 472 594 460 618 q 448 642 428 656 q 407 670 375 670 q 324 670 272 634 q 219 597 176 536 q 134 476 107 397 q 80 318 80 232 q 80 164 58 164 z"},"o":{"x_min":0,"x_max":283,"ha":283,"o":"m 131 286 q 158 286 178 274 q 198 263 211 245 q 224 227 230 204 q 237 182 237 159 q 237 119 221 86 q 236 94 246 105 q 257 116 264 128 q 272 140 276 150 q 281 160 284 166 q 287 173 295 173 q 302 173 307 169 q 312 165 312 159 q 312 155 311 153 q 308 145 300 128 q 292 112 278 96 q 265 79 246 65 q 226 51 199 48 q 180 24 153 9 q 126 -6 94 -6 q 49 -6 18 24 q -12 54 -12 105 q -12 136 0 168 q 13 201 39 221 q 49 253 74 270 q 99 286 131 286 z m 101 24 q 122 24 136 38 q 151 53 160 74 q 169 96 173 121 q 177 146 177 166 q 177 180 175 196 q 173 211 168 224 q 162 238 152 247 q 143 256 128 256 q 115 256 99 249 l 105 249 q 110 249 114 247 q 119 245 119 239 q 119 234 116 230 q 113 227 107 227 q 95 227 86 210 q 77 194 71 172 q 65 149 62 125 q 58 101 58 86 q 58 65 66 44 q 75 24 101 24 z"},"N":{"x_min":0,"x_max":988,"ha":988,"o":"m 895 257 q 906 218 912 182 q 917 145 917 114 q 917 63 900 32 q 883 0 845 0 q 822 0 810 14 q 799 27 799 50 q 799 82 812 121 q 824 160 841 205 q 829 249 812 296 q 796 344 776 390 q 757 437 736 479 q 716 521 696 554 q 676 586 658 606 q 640 626 626 628 q 611 595 598 544 q 586 493 576 439 q 567 385 559 334 q 551 284 544 252 q 537 219 522 176 q 508 132 483 93 q 458 54 421 27 q 384 0 332 0 q 324 0 320 5 q 316 10 316 15 q 316 21 320 26 q 324 30 332 30 q 359 30 378 46 q 398 62 412 88 q 426 114 436 146 q 446 179 453 212 q 460 246 465 277 q 470 308 475 331 q 480 357 488 402 q 496 446 509 496 q 522 545 542 591 q 561 637 590 666 q 522 657 456 634 q 390 610 331 576 q 272 543 222 500 q 173 458 137 412 q 101 366 81 318 q 61 269 61 223 q 61 197 55 180 q 49 164 39 164 q 28 164 14 186 q 0 208 0 244 q 0 286 24 336 q 48 385 92 436 q 135 486 196 534 q 257 581 330 618 q 404 654 488 676 q 573 699 663 700 l 669 700 q 675 698 678 694 q 681 690 681 685 q 681 680 678 675 q 674 670 666 670 q 650 670 638 650 q 672 644 707 612 q 742 580 774 532 q 806 484 834 424 q 861 365 881 305 q 892 335 903 365 q 914 395 923 425 q 932 455 938 486 q 943 517 943 550 q 943 590 925 614 q 907 638 862 638 q 854 638 850 643 q 847 648 847 653 q 847 658 851 663 q 855 668 863 668 q 922 668 948 636 q 973 603 973 551 q 973 518 966 480 q 958 442 947 403 q 936 364 922 326 q 908 289 895 257 z m 843 30 q 865 30 865 73 q 865 103 854 152 q 843 122 836 96 q 829 70 829 50 q 829 30 843 30 z"},"+":{"x_min":0,"x_max":218,"ha":218,"o":"m 53 112 q 47 110 46 108 q 46 106 44 106 q 40 105 36 118 q 31 130 29 146 q 28 150 28 158 q 28 166 30 172 q 32 179 39 180 q 46 181 56 177 q 66 173 86 168 l 89 191 q 89 195 90 198 q 90 202 90 204 q 90 211 87 212 q 85 212 85 214 q 85 218 98 222 q 111 225 127 225 q 130 225 133 224 q 136 224 139 224 q 147 223 154 220 q 160 217 160 210 q 160 203 154 194 q 148 184 142 164 q 163 164 191 167 l 193 167 q 205 167 207 155 l 207 150 q 207 127 184 120 q 160 113 131 112 q 129 101 128 88 q 127 75 127 61 q 127 47 113 47 q 102 47 95 52 q 88 57 84 65 q 81 73 80 82 q 79 92 79 101 l 79 112 z"},"G":{"x_min":0,"x_max":928,"ha":928,"o":"m 805 226 q 811 226 822 226 q 834 226 848 226 q 861 227 874 228 q 886 228 894 229 q 902 230 906 224 q 910 219 910 212 q 910 199 893 189 q 885 147 867 112 q 849 76 822 50 q 794 24 757 9 q 720 -6 675 -6 q 616 -6 574 17 q 531 40 504 78 q 477 117 464 166 q 452 215 452 266 q 452 320 465 378 q 478 436 502 490 q 527 544 562 590 q 597 635 642 663 q 522 649 416 609 q 310 569 232 510 q 153 452 107 380 q 61 307 61 227 q 61 198 55 181 q 49 164 39 164 q 28 164 14 186 q 0 209 0 251 q 0 301 26 354 q 53 406 102 456 q 150 506 218 550 q 287 595 372 628 q 457 661 556 680 q 654 700 762 700 q 807 700 836 684 q 866 668 884 644 q 901 620 908 592 q 915 563 915 538 q 915 525 913 506 q 911 488 906 471 q 901 454 892 442 q 882 430 868 430 q 857 430 850 440 q 842 450 842 476 q 842 499 846 528 q 851 557 851 582 q 851 621 833 646 q 815 670 770 670 q 730 670 696 650 q 663 629 636 594 q 610 560 590 516 q 571 472 558 425 q 545 378 538 332 q 532 285 532 246 q 532 203 540 162 q 549 122 568 92 q 587 61 617 42 q 647 24 690 24 q 734 24 764 42 q 795 59 814 84 q 834 109 845 135 q 856 161 860 179 q 841 175 820 174 q 800 173 785 173 q 771 173 748 174 q 726 174 716 174 l 702 174 q 696 173 695 170 q 693 168 693 168 q 689 167 684 180 q 679 192 677 208 q 677 211 676 214 q 676 217 676 220 q 676 228 678 235 q 681 242 690 242 q 701 242 730 234 q 759 226 805 226 z"},"q":{"x_min":0,"x_max":318,"ha":318,"o":"m 124 286 q 163 286 180 262 q 197 239 199 212 q 201 231 202 243 q 204 255 204 260 q 204 266 202 267 q 200 267 200 269 q 200 273 212 276 q 225 280 242 280 q 253 280 264 276 q 274 273 274 259 q 274 245 263 196 q 252 146 238 79 q 258 84 272 96 q 285 108 294 122 q 304 135 310 148 q 316 160 319 166 q 322 173 330 173 q 337 173 342 169 q 347 165 347 159 q 347 155 346 153 q 343 145 335 128 q 327 112 314 95 q 300 78 280 64 q 260 51 233 48 q 228 20 223 -8 q 218 -37 214 -66 q 226 -68 237 -68 q 248 -69 258 -70 q 260 -70 264 -71 q 267 -72 267 -79 q 267 -83 265 -85 q 261 -92 246 -96 q 231 -100 210 -102 q 208 -125 206 -146 q 205 -168 205 -188 q 205 -193 201 -198 q 197 -202 191 -202 q 181 -202 170 -185 q 160 -168 160 -124 l 160 -105 q 144 -106 129 -106 q 114 -106 101 -106 l 54 -106 q 48 -106 48 -107 q 46 -109 45 -108 q 40 -105 40 -90 q 40 -87 41 -80 q 42 -72 44 -64 q 46 -56 49 -50 q 52 -44 57 -44 q 62 -44 94 -49 q 125 -54 164 -60 q 166 -30 170 4 q 174 38 179 73 q 159 33 135 14 q 111 -6 78 -6 q 33 -6 12 26 q -8 58 -8 104 q -8 134 0 166 q 9 198 26 225 q 42 252 66 269 q 91 286 124 286 z m 171 175 q 172 182 172 190 q 173 197 173 202 q 173 210 171 220 q 169 229 164 237 q 160 245 153 250 q 146 256 136 256 q 118 256 104 239 q 91 222 82 196 q 72 171 67 142 q 62 112 62 87 q 62 57 70 40 q 77 24 94 24 q 110 24 124 37 q 138 50 150 70 q 161 91 170 115 q 180 139 187 161 q 186 160 182 160 q 178 160 174 164 q 171 168 171 173 z"},"d":{"x_min":0,"x_max":317,"ha":317,"o":"m 199 205 q 204 246 210 289 q 217 332 222 369 q 228 406 232 432 q 235 459 235 466 q 235 471 232 472 q 230 474 230 475 q 230 479 243 482 q 256 485 272 485 q 283 485 294 482 q 304 480 304 472 q 304 467 299 439 q 294 411 286 370 q 278 329 269 281 q 260 233 252 188 q 244 142 239 104 q 234 67 234 47 q 234 29 239 30 q 246 30 258 48 q 270 67 282 90 q 294 114 304 136 q 314 158 317 166 q 320 175 331 175 q 337 175 342 171 q 346 167 346 160 q 346 157 341 145 q 336 133 330 120 q 324 107 318 95 q 313 83 311 80 q 297 53 286 38 q 275 22 266 14 q 257 5 250 2 q 242 0 236 0 q 210 0 200 24 q 189 48 189 83 l 189 94 q 167 43 141 18 q 115 -6 78 -6 q 33 -6 12 26 q -8 58 -8 104 q -8 134 0 166 q 9 198 26 225 q 42 252 66 269 q 91 286 124 286 q 145 286 159 278 q 173 271 182 260 q 191 248 195 234 q 199 219 199 205 z m 187 161 q 186 160 182 160 q 178 160 174 164 q 171 168 171 173 l 171 175 q 172 182 172 190 q 173 197 173 202 q 173 210 171 220 q 169 229 164 237 q 160 245 153 250 q 146 256 136 256 q 118 256 104 239 q 91 222 82 196 q 72 171 67 142 q 62 112 62 87 q 62 57 70 40 q 77 24 94 24 q 110 24 124 37 q 138 50 150 70 q 161 91 170 115 q 180 139 187 161 z"},"1":{"x_min":0,"x_max":140,"ha":140,"o":"m 64 16 q 64 2 50 2 q 40 2 30 18 q 19 35 19 79 q 19 102 22 138 q 26 174 30 214 q 35 255 41 297 q 47 339 52 374 q 56 409 60 434 q 63 459 63 466 q 63 471 61 472 q 59 474 59 475 q 59 479 72 482 q 84 485 100 485 q 112 485 122 482 q 133 478 133 464 q 133 455 128 430 q 123 405 115 368 q 107 332 98 288 q 90 243 82 196 q 74 150 69 103 q 64 56 64 16 z"},"5":{"x_min":0,"x_max":403,"ha":403,"o":"m 352 409 q 342 409 330 413 q 319 417 300 422 q 282 428 254 433 q 225 438 181 440 q 181 439 180 438 q 180 438 180 437 q 176 422 168 396 q 159 370 148 329 l 141 304 q 167 310 198 310 q 239 310 269 298 q 299 287 318 268 q 338 249 348 224 q 357 200 357 174 q 357 143 344 112 q 332 80 308 56 q 284 31 250 16 q 215 0 171 0 q 134 0 106 10 q 77 20 58 38 q 38 55 28 77 q 18 99 18 123 q 18 140 26 157 q 35 174 54 174 q 66 174 74 164 q 82 154 82 128 q 82 109 88 92 q 94 74 106 60 q 118 47 135 38 q 152 30 173 30 q 196 30 216 44 q 235 58 249 80 q 263 103 272 130 q 280 158 280 185 q 280 223 260 251 q 241 279 196 279 q 152 279 124 257 q 124 256 124 256 q 123 256 123 255 q 118 247 110 237 q 102 227 92 227 q 82 227 80 232 q 78 238 78 245 q 90 297 96 332 q 102 368 105 392 q 108 415 109 430 q 110 445 113 456 q 113 462 120 468 q 122 469 124 470 q 125 471 127 472 q 138 478 161 482 q 184 486 225 486 q 269 486 304 482 q 338 479 361 479 q 362 479 363 479 q 365 481 365 481 q 367 483 368 483 q 372 483 375 470 q 378 458 378 442 q 378 430 374 420 q 369 409 352 409 z"}}}
